<?xml version="1.0" standalone="no"?>
<!DOCTYPE svg PUBLIC "-//W3C//DTD SVG 1.1//EN" "http://www.w3.org/Graphics/SVG/1.1/DTD/svg11.dtd" >

<svg>
<metadata>
Created by webfont
</metadata>
<defs>

<font id="iconfont" horiz-adv-x="1288" vert-adv-y="1288" >
  <font-face
    
    font-family="iconfont"
    
    font-weight="400"
    
    font-stretch="normal"
    
    units-per-em="1000"
    
    ascent="1104"
    
    descent="-285"
    
  />
    <missing-glyph />
    
    <glyph glyph-name="uni201C" unicode="&#x201C;" d="M561 504Q561 555 583.50 626.50Q606 698 637 760L701 760Q646 612 646 504L561 504M760 504Q760 555 782 627Q804 699 835 760L899 760Q844 612 844 504L760 504Z"  horiz-adv-x="984" vert-adv-y="1000"  />

    
    <glyph glyph-name="uni201D" unicode="&#x201D;" d="M85 504Q140 652 140 760L225 760Q225 710 202.50 637.50Q180 565 149 504L85 504M284 504Q339 652 339 760L423 760Q423 710 400.50 637.50Q378 565 347 504L284 504Z"  horiz-adv-x="984" vert-adv-y="1000"  />

    
    <glyph glyph-name="uni2463" unicode="&#x2463;" d="M491-129Q289-129 162.50-3Q36 123 36 325Q36 526 163.50 655Q291 784 494 784Q692 784 820 656.50Q948 529 948 332Q948 131 818.50 1Q689-129 491-129M493-68Q667-68 775 43Q883 154 883 329Q883 507 776.50 615Q670 723 493 723Q318 723 210 612Q102 501 102 328Q102 149 208.50 40.50Q315-68 493-68M661 185L598 185L598 51L523 51L523 185L267 185L267 266L506 603L598 603L598 253L661 253L661 185M523 253L523 523L334 253L523 253Z"  horiz-adv-x="984" vert-adv-y="1000"  />

    
    <glyph glyph-name="uni28" unicode="&#x28;" d="M223-200Q65 27 65 274Q65 526 226 760L308 760Q151 515 151 281Q151 38 305-200L223-200Z"  horiz-adv-x="359" vert-adv-y="1000"  />

    
    <glyph glyph-name="uni29" unicode="&#x29;" d="M50-200Q207 45 207 279Q207 522 54 760L136 760Q294 533 294 286Q294 34 133-200L50-200Z"  horiz-adv-x="359" vert-adv-y="1000"  />

    
    <glyph glyph-name="uni2d" unicode="&#x2d;" d="M72 271L72 343L367 343L367 271L72 271Z"  horiz-adv-x="440" vert-adv-y="1000"  />

    
    <glyph glyph-name="uni30" unicode="&#x30;" d="M287-10Q232-10 191.50 6Q151 22 118.50 60.50Q86 99 69.50 171Q53 243 53 347Q53 451 69.50 522.50Q86 594 118.50 633Q151 672 191.50 688Q232 704 287 704Q343 704 383.50 688Q424 672 456.50 633Q489 594 505.50 522.50Q522 451 522 347Q522 243 505.50 171.50Q489 100 456.50 61Q424 22 383.50 6Q343-10 287-10M287 65Q364 65 397.50 125.50Q431 186 431 347Q431 508 397.50 568Q364 628 287 628Q211 628 178 568Q145 508 145 347Q145 186 178 125.50Q211 65 287 65Z"  horiz-adv-x="575" vert-adv-y="1000"  />

    
    <glyph glyph-name="uni3001" unicode="&#x3001;" d="M306-96Q280-49 232.50 5Q185 59 145 90L200 127Q244 99 292 49Q340-1 376-54L306-96Z"  horiz-adv-x="984" vert-adv-y="1000"  />

    
    <glyph glyph-name="uni3002" unicode="&#x3002;" d="M348-78Q348-78 329-94.50Q310-111 253-111Q196-111 158-78Q120-45 120 15Q120 75 158 108Q196 141 253 141Q310 141 348 108Q386 75 386 15Q386-45 348-78M199-39Q199-39 209.50-48.50Q220-58 253-58Q286-58 307-39Q328-20 328 15Q328 50 307 69Q286 88 253 88Q220 88 199 69Q178 50 178 15Q178-20 199-39Z"  horiz-adv-x="984" vert-adv-y="1000"  />

    
    <glyph glyph-name="uni300C" unicode="&#x300C;" d="M692 250L605 250L605 770L794 770L794 696L692 696L692 250Z"  horiz-adv-x="984" vert-adv-y="1000"  />

    
    <glyph glyph-name="uni300D" unicode="&#x300D;" d="M292 410L379 410L379-110L190-110L190-36L292-36L292 410Z"  horiz-adv-x="984" vert-adv-y="1000"  />

    
    <glyph glyph-name="uni31" unicode="&#x31;" d="M273 0L273 612L101 579L101 652L304 694L363 694L363 0L273 0Z"  horiz-adv-x="575" vert-adv-y="1000"  />

    
    <glyph glyph-name="uni32" unicode="&#x32;" d="M57 0L57 95Q202 209 277.50 284Q353 359 376.50 405.50Q400 452 400 506Q400 574 357.50 601.50Q315 629 253 629Q174 629 105 611L105 688Q173 704 263 704Q486 704 486 505Q486 411 426 331.50Q366 252 196 116L156 85L156 76L514 76L514 0L57 0Z"  horiz-adv-x="575" vert-adv-y="1000"  />

    
    <glyph glyph-name="uni33" unicode="&#x33;" d="M226-10Q136-10 70 3L70 82Q139 65 225 65Q407 65 407 192Q407 264 358.50 294Q310 324 208 324L153 324L153 393L207 393Q296 393 344 426Q392 459 392 517Q392 577 356 603.50Q320 630 244 630Q171 630 103 610L103 684Q165 704 248 704Q362 704 418.50 660Q475 616 475 522Q475 401 352 364L352 358Q493 334 493 191Q493-10 226-10Z"  horiz-adv-x="575" vert-adv-y="1000"  />

    
    <glyph glyph-name="uni34" unicode="&#x34;" d="M529 247L529 171L447 171L447 0L363 0L363 171L35 171L35 268L339 694L447 694L447 247L529 247M111 247L363 247L363 602L357 602L111 253L111 247Z"  horiz-adv-x="575" vert-adv-y="1000"  />

    
    <glyph glyph-name="uni35" unicode="&#x35;" d="M229-10Q151-10 86 3L86 82Q154 65 228 65Q320 65 370 99.50Q420 134 420 215Q420 294 374 329Q328 364 221 364Q170 364 88 349L135 694L459 694L459 616L203 616L174 426Q211 432 255 432Q506 432 506 221Q506-10 229-10Z"  horiz-adv-x="575" vert-adv-y="1000"  />

    
    <glyph glyph-name="uni36" unicode="&#x36;" d="M287-10Q57-10 57 269Q57 472 148.50 588Q240 704 429 704L428 628Q304 628 231.50 563Q159 498 150 395L153 395Q175 418 215 435Q255 452 302 452Q401 452 457 395.50Q513 339 513 228Q513 121 456 55.50Q399-10 287-10M286 65Q431 65 431 228Q431 304 395 343.50Q359 383 298 383Q220 383 181.50 345.50Q143 308 143 244Q143 65 286 65Z"  horiz-adv-x="575" vert-adv-y="1000"  />

    
    <glyph glyph-name="uni37" unicode="&#x37;" d="M135 0L435 616L54 616L54 694L512 694L512 606L227 0L135 0Z"  horiz-adv-x="575" vert-adv-y="1000"  />

    
    <glyph glyph-name="uni38" unicode="&#x38;" d="M287-10Q173-10 111.50 38Q50 86 50 184Q50 315 173 357L173 361Q73 408 73 519Q73 605 126 654.50Q179 704 287 704Q395 704 448 654.50Q501 605 501 519Q501 401 401 361L401 357Q524 321 524 183Q524-10 287-10M287 390Q357 390 388.50 423.50Q420 457 420 513Q420 570 386.50 601Q353 632 287 632Q154 632 154 513Q154 390 287 390M287 63Q441 63 441 187Q441 257 403 290.50Q365 324 287 324Q209 324 171.50 290.50Q134 257 134 187Q134 63 287 63Z"  horiz-adv-x="575" vert-adv-y="1000"  />

    
    <glyph glyph-name="uni39" unicode="&#x39;" d="M143-12L144 63Q270 63 341 128.50Q412 194 422 299L418 299Q397 276 357.50 259Q318 242 270 242Q170 242 113.50 296.50Q57 351 57 461Q57 569 115 636.50Q173 704 284 704Q388 704 450.50 638Q513 572 513 422Q513 218 422.50 103Q332-12 143-12M273 310Q351 310 390 346.50Q429 383 429 448Q429 536 391.50 583Q354 630 284 630Q214 630 177.50 586.50Q141 543 141 461Q141 386 177 348Q213 310 273 310Z"  horiz-adv-x="575" vert-adv-y="1000"  />

    
    <glyph glyph-name="uni3d" unicode="&#x3d;" d="M35 376L35 461L517 461L517 376L35 376M35 140L35 225L517 225L517 140L35 140Z"  horiz-adv-x="552" vert-adv-y="1000"  />

    
    <glyph glyph-name="uni41" unicode="&#x41;" d="M561 0L486 207L179 207L103 0L11 0L274 694L394 694L656 0L561 0M209 287L457 287L340 610L328 610L209 287Z"  horiz-adv-x="667" vert-adv-y="1000"  />

    
    <glyph glyph-name="uni46" unicode="&#x46;" d="M478 614L182 614L182 389L458 389L458 309L182 309L182 0L92 0L92 694L478 694L478 614Z"  horiz-adv-x="527" vert-adv-y="1000"  />

    
    <glyph glyph-name="uni47" unicode="&#x47;" d="M397-10Q316-10 260 5.50Q204 21 159.50 59.50Q115 98 93.50 169.50Q72 241 72 347Q72 540 157 622Q242 704 407 704Q523 704 588 677L588 597Q516 625 411 625Q349 625 306.50 613Q264 601 231 570.50Q198 540 182 485Q166 430 166 347Q166 260 181 204Q196 148 229 118.50Q262 89 303 78.50Q344 68 407 68Q474 68 520 81L520 296L381 296L381 372L606 372L606 19Q515-10 397-10Z"  horiz-adv-x="685" vert-adv-y="1000"  />

    
    <glyph glyph-name="uni48" unicode="&#x48;" d="M525 694L616 694L616 0L525 0L525 336L182 336L182 0L92 0L92 694L182 694L182 411L525 411L525 694Z"  horiz-adv-x="708" vert-adv-y="1000"  />

    
    <glyph glyph-name="uni49" unicode="&#x49;" d="M92 0L92 694L182 694L182 0L92 0Z"  horiz-adv-x="274" vert-adv-y="1000"  />

    
    <glyph glyph-name="uni4a" unicode="&#x4a;" d="M-6-181Q-48-181-76-175L-76-95Q-39-102-9-102Q93-102 93 25L93 694L183 694L183 16Q183-77 135.50-129Q88-181-6-181Z"  horiz-adv-x="271" vert-adv-y="1000"  />

    
    <glyph glyph-name="uni4c" unicode="&#x4c;" d="M182 81L483 81L483 0L92 0L92 694L182 694L182 81Z"  horiz-adv-x="507" vert-adv-y="1000"  />

    
    <glyph glyph-name="uni4d" unicode="&#x4d;" d="M92 0L92 694L236 694L413 247L419 247L596 694L738 694L738 0L648 0L648 603L642 603L464 157L366 157L186 603L180 603L180 0L92 0Z"  horiz-adv-x="830" vert-adv-y="1000"  />

    
    <glyph glyph-name="uni4e" unicode="&#x4e;" d="M92 0L92 694L233 694L549 118L555 118L555 694L645 694L645 0L526 0L186 611L180 611L180 0L92 0Z"  horiz-adv-x="737" vert-adv-y="1000"  />

    
    <glyph glyph-name="uni4E00" unicode="&#x4E00;" d="M934 430L934 345L50 345L50 430L934 430Z"  horiz-adv-x="984" vert-adv-y="1000"  />

    
    <glyph glyph-name="uni4E01" unicode="&#x4E01;" d="M920 734L920 656L551 656L551 46Q551-20 522.50-44Q494-68 412-74L314-81L287 1L394 7Q444 10 455 21.50Q466 33 466 78L467 656L66 656L66 734L920 734Z"  horiz-adv-x="984" vert-adv-y="1000"  />

    
    <glyph glyph-name="uni4E0A" unicode="&#x4E0A;" d="M508 24L939 24L939-48L49-48L49 24L430 24L430 803L508 799L508 522L873 522L873 449L508 449L508 24Z"  horiz-adv-x="984" vert-adv-y="1000"  />

    
    <glyph glyph-name="uni4E0D" unicode="&#x4E0D;" d="M594 661Q542 565 480 479L531 476L531-100L454-100L454 444Q312 261 103 109L47 172Q347 375 503 661L99 661L99 737L889 737L889 661L594 661M620 463Q823 303 929 182L873 114Q816 183 726.50 269Q637 355 570 407L620 463Z"  horiz-adv-x="984" vert-adv-y="1000"  />

    
    <glyph glyph-name="uni4E0E" unicode="&#x4E0E;" d="M890 591L301 591L290 433L838 433Q837 422 832 337.50Q827 253 822.50 172.50Q818 92 817 81Q810-14 777.50-44Q745-74 649-79L526-86L500-10L626-4Q693-1 712.50 16.50Q732 34 738 102Q752 271 755 356L206 356L237 794L316 791L307 665L890 665L890 591M687 215L687 141L45 141L45 215L687 215Z"  horiz-adv-x="984" vert-adv-y="1000"  />

    
    <glyph glyph-name="uni4E13" unicode="&#x4E13;" d="M928 421L381 421Q362 371 332 307L797 307L797 231Q713 131 608 36Q666 14 788-36L762-113Q462 20 197 109L225 177Q357 133 524 69Q637 158 698 235L239 235L239 297Q267 350 296 421L56 421L56 493L323 493Q348 564 363 617L136 617L136 689L384 689Q400 750 414 814L494 800Q482 746 467 689L848 689L848 617L447 617Q430 557 408 493L928 493L928 421Z"  horiz-adv-x="984" vert-adv-y="1000"  />

    
    <glyph glyph-name="uni4E14" unicode="&#x4E14;" d="M783 17L940 17L940-55L44-55L44 17L201 17L201 757L783 757L783 17M706 683L277 683L277 515L706 515L706 683M706 271L706 443L277 443L277 271L706 271M277 198L277 17L706 17L706 198L277 198Z"  horiz-adv-x="984" vert-adv-y="1000"  />

    
    <glyph glyph-name="uni4E16" unicode="&#x4E16;" d="M779 180L421 180L421 496L257 496L257 27L906 27L906-46L180-46L180 496L42 496L42 570L180 570L180 778L257 775L257 570L421 570L421 802L495 799L495 570L703 570L703 803L779 800L779 570L941 570L941 496L779 496L779 180M703 496L495 496L495 252L703 252L703 496Z"  horiz-adv-x="984" vert-adv-y="1000"  />

    
    <glyph glyph-name="uni4E1A" unicode="&#x4E1A;" d="M643 24L933 24L933-46L55-46L55 24L349 24L349 793L427 790L427 24L562 24L562 795L643 792L643 24M894 609Q818 351 741 190L667 219Q712 304 754 419Q796 534 820 632L894 609M315 227L239 193Q211 293 167.50 408.50Q124 524 86 596L157 625Q191 561 241 434.50Q291 308 315 227Z"  horiz-adv-x="984" vert-adv-y="1000"  />

    
    <glyph glyph-name="uni4E1C" unicode="&#x4E1C;" d="M850 302L549 302L549 22Q549-42 528.50-61Q508-80 443-87L370-93L344-18L418-12Q456-9 465 1Q474 11 474 49L474 302L156 302L156 376Q237 488 300 602L76 602L76 672L337 672Q376 749 402 814L473 784Q453 736 421 672L902 672L902 602L384 602Q307 458 242 371L474 371L474 542L549 539L549 371L850 371L850 302M691 247Q742 206 820 132Q898 58 942 7L890-51Q841 8 766 82.50Q691 157 641 198L691 247M27 1Q167 97 282 243L340 194Q222 47 82-58L27 1Z"  horiz-adv-x="984" vert-adv-y="1000"  />

    
    <glyph glyph-name="uni4E25" unicode="&#x4E25;" d="M926 749L926 682L646 682L646 420L921 420L921 354L224 354L224 255Q224 141 196.50 65Q169-11 98-109L34-74Q102 17 127.50 87Q153 157 153 273L153 420L370 420L370 682L79 682L79 749L926 749M571 420L571 682L446 682L446 420L571 420M317 493L264 433Q242 470 197 523.50Q152 577 119 608L169 656Q199 630 246 578Q293 526 317 493M692 491Q722 515 767.50 566.50Q813 618 838 655L893 608Q868 571 821 518.50Q774 466 743 441L692 491Z"  horiz-adv-x="984" vert-adv-y="1000"  />

    
    <glyph glyph-name="uni4E2A" unicode="&#x4E2A;" d="M29 400Q164 479 276.50 585Q389 691 458 800L527 800Q681 570 953 405L897 335Q610 543 493 717Q348 508 83 333L29 400M452 489L533 485L533-101L452-101L452 489Z"  horiz-adv-x="984" vert-adv-y="1000"  />

    
    <glyph glyph-name="uni4E2D" unicode="&#x4E2D;" d="M866 617L866 194L530 194L530-100L450-100L450 194L117 194L117 617L450 617L450 811L530 807L530 617L866 617M195 268L450 268L450 543L195 543L195 268M789 268L789 543L530 543L530 268L789 268Z"  horiz-adv-x="984" vert-adv-y="1000"  />

    
    <glyph glyph-name="uni4E30" unicode="&#x4E30;" d="M923 198L923 123L530 123L530-104L453-104L453 123L58 123L58 198L453 198L453 363L150 363L150 435L453 435L453 586L104 586L104 658L453 658L453 801L530 798L530 658L877 658L877 586L530 586L530 435L831 435L831 363L530 363L530 198L923 198Z"  horiz-adv-x="984" vert-adv-y="1000"  />

    
    <glyph glyph-name="uni4E3A" unicode="&#x4E3A;" d="M500 575L862 575Q855 398 835 63Q831-10 790.50-38Q750-66 641-72L569-76L536 3L636 7Q710 10 734 27Q758 44 763 99Q769 155 776 300Q783 445 784 499L492 499Q466 303 384.50 171.50Q303 40 127-95L70-34Q236 88 312.50 206.50Q389 325 414 499L89 499L89 575L423 575Q429 634 441 800L516 797Q516 732 500 575M300 587Q278 623 235.50 673Q193 723 163 749L216 796Q244 773 288 725Q332 677 354 645L300 587M698 231L643 169Q624 207 576 263.50Q528 320 490 354L543 404Q577 377 626 322Q675 267 698 231Z"  horiz-adv-x="984" vert-adv-y="1000"  />

    
    <glyph glyph-name="uni4E3B" unicode="&#x4E3B;" d="M531 21L934 21L934-52L50-52L50 21L452 21L452 271L133 271L133 346L452 346L452 559L92 559L92 633L460 633Q429 742 409 787L484 806Q501 771 540 633L892 633L892 559L531 559L531 346L851 346L851 271L531 271L531 21Z"  horiz-adv-x="984" vert-adv-y="1000"  />

    
    <glyph glyph-name="uni4E5D" unicode="&#x4E5D;" d="M859 173L932 146Q928 82 915 12Q907-24 882-40.50Q857-57 801-61Q757-64 712-61Q656-57 631-33Q606-9 606 52L606 520L399 520Q393 357 362 253Q331 149 272 74.50Q213 0 95-100L36-41Q121 28 167 75.50Q213 123 250.50 187.50Q288 252 303 329Q318 406 321 520L73 520L73 599L322 599Q323 629 324 679Q325 729 326 762.50Q327 796 327 803L406 800L401 599L685 599L685 66Q685 38 695 27Q705 16 732 14Q759 12 786 14Q817 16 830 26Q843 36 849 66Q858 115 859 173Z"  horiz-adv-x="984" vert-adv-y="1000"  />

    
    <glyph glyph-name="uni4E5F" unicode="&#x4E5F;" d="M855 174L932 144Q918 41 909 13Q887-52 764-61Q540-78 317-61Q238-55 206.50-25Q175 5 175 90L175 409L57 379L43 452L175 485L175 685L252 682L252 504L458 556L458 805L534 802L534 575L834 650Q833 620 826 477.50Q819 335 817 311Q813 250 787 230.50Q761 211 690 200L644 192L617 267L661 274Q712 282 727 293.50Q742 305 745 344Q751 446 755 555L534 499L534 95L458 95L458 480L252 428L252 94Q252 49 267.50 34Q283 19 330 15Q547-2 742 15Q793 19 815 31Q837 43 842 69Q854 123 855 174Z"  horiz-adv-x="984" vert-adv-y="1000"  />

    
    <glyph glyph-name="uni4E60" unicode="&#x4E60;" d="M850 734Q849 719 844 567.50Q839 416 834 267.50Q829 119 827 91Q821 0 779.50-32Q738-64 616-73L538-79L509 1L610 7Q690 11 715 33Q740 55 745 121Q748 159 756.50 386Q765 613 766 656L99 656L99 734L850 734M236 608Q293 577 382.50 514Q472 451 517 409L469 332Q424 381 336 446.50Q248 512 187 546L236 608M73 128Q194 167 386.50 249Q579 331 689 390L700 346L708 312Q603 256 414.50 173.50Q226 91 110 51L73 128Z"  horiz-adv-x="984" vert-adv-y="1000"  />

    
    <glyph glyph-name="uni4E70" unicode="&#x4E70;" d="M718 516Q763 593 797 673L113 673L113 743L876 743L876 672Q837 578 786 487L718 516M927 187L583 187Q575 160 565 141Q793 41 908-29L875-102Q752-24 526 82Q476 23 380-19Q284-61 116-100L86-28Q280 13 372.50 61.50Q465 110 500 187L61 187L61 256L521 256Q532 312 535 428Q539 588 539 633L616 629Q616 578 612 418Q609 312 599 256L927 256L927 187M479 511L449 444Q319 523 214 565L246 627Q347 582 479 511M132 417L164 479Q307 418 418 354L389 289Q248 369 132 417Z"  horiz-adv-x="984" vert-adv-y="1000"  />

    
    <glyph glyph-name="uni4E86" unicode="&#x4E86;" d="M372 4Q427 8 442 20Q457 32 457 76L457 461Q482 475 508 492Q534 509 553 522Q572 535 602 557Q632 579 645 589Q658 599 693 625.50Q728 652 738 660L90 660L90 735L871 735L871 660Q672 505 539 421L539 46Q539-23 511.50-44.50Q484-66 398-74L318-81L292-2L372 4Z"  horiz-adv-x="984" vert-adv-y="1000"  />

    
    <glyph glyph-name="uni4E88" unicode="&#x4E88;" d="M547 428L908 428L908 357Q836 232 767 141L697 183Q767 265 820 357L535 357L535 29Q535-35 509-57.50Q483-80 405-86L337-91L311-13L389-9Q437-6 448 5Q459 16 459 59L459 357L63 357L63 428L492 428Q390 518 271 595L313 652Q380 608 487 524Q572 585 695 685L155 685L155 755L817 755L817 685Q607 520 548 476Q551 474 571 457L547 428Z"  horiz-adv-x="984" vert-adv-y="1000"  />

    
    <glyph glyph-name="uni4E89" unicode="&#x4E89;" d="M934 380L934 314L812 314L812 130L512 130L512 39Q512-26 487-49.50Q462-73 385-77L321-81L295-8L369-4Q416-2 427.50 11.50Q439 25 439 69L439 130L126 130L126 193L439 193L439 314L43 314L43 380L439 380L439 492L163 492L163 524Q141 505 109 481L61 539Q144 596 217 672.50Q290 749 338 826L408 799Q396 778 368 738L713 738L713 671L605 557L812 557L812 380L934 380M314 670Q271 620 202 557L509 557L616 670L314 670M512 492L512 380L741 380L741 492L512 492M741 193L741 314L512 314L512 193L741 193Z"  horiz-adv-x="984" vert-adv-y="1000"  />

    
    <glyph glyph-name="uni4E8B" unicode="&#x4E8B;" d="M925 251L925 192L839 192L839 65L530 65L530 17Q530-40 505-60.50Q480-81 409-86L345-91L318-21Q364-20 408-17Q445-14 452-7.50Q459-1 459 34L459 65L123 65L123 123L459 123L459 192L53 192L53 251L459 251L459 314L123 314L123 372L459 372L459 432L168 432L168 609L459 609L459 671L55 671L55 733L459 733L459 804L530 800L530 733L923 733L923 671L530 671L530 609L818 609L818 432L530 432L530 372L839 372L839 251L925 251M240 487L459 487L459 554L240 554L240 487M746 554L530 554L530 487L746 487L746 554M530 314L530 251L769 251L769 314L530 314M769 123L769 192L530 192L530 123L769 123Z"  horiz-adv-x="984" vert-adv-y="1000"  />

    
    <glyph glyph-name="uni4E8E" unicode="&#x4E8E;" d="M918 424L918 351L542 351L542 50Q542-20 516.50-43.50Q491-67 408-74L307-82L283-5L377 1Q429 4 444 17.50Q459 31 459 73L459 351L64 351L64 424L459 424L459 664L145 664L145 738L838 738L838 664L542 664L542 424L918 424Z"  horiz-adv-x="984" vert-adv-y="1000"  />

    
    <glyph glyph-name="uni4E9B" unicode="&#x4E9B;" d="M74 268L62 341Q68 341 78.50 343Q89 345 106.50 347.50Q124 350 138 352L138 719L211 716L211 365L319 383L319 801L392 798L392 629L529 629L529 562L392 562L392 396Q508 417 526 421L528 383L532 345Q438 328 74 268M652 287Q600 291 577 314.50Q554 338 554 396L554 800L629 798L629 593Q773 655 864 722L896 650Q814 597 629 514L629 421Q629 382 642.50 369Q656 356 690 354Q731 351 772 354Q806 356 821 365Q836 374 842 392Q851 420 856 468L924 444Q917 382 904 340Q896 316 872 303.50Q848 291 795 287Q723 281 652 287M181 132L181 205L804 205L804 132L181 132M66-50L66 22L921 22L921-50L66-50Z"  horiz-adv-x="984" vert-adv-y="1000"  />

    
    <glyph glyph-name="uni4EA4" unicode="&#x4EA4;" d="M908 670L908 595L75 595L75 670L471 670Q457 719 428 785L496 805Q529 736 550 670L908 670M851 272Q804 326 714 400.50Q624 475 565 511L610 568Q668 533 758 462.50Q848 392 896 344L851 272M85 332Q236 433 350 566L405 515Q286 378 129 266L85 332M945-21L910-102Q638-22 497 85Q425 28 324.50-17Q224-62 74-110L37-36Q307 40 437 136Q350 219 280 345L344 383Q412 257 493 182Q572 260 631 382L705 350Q637 216 553 133Q683 41 945-21Z"  horiz-adv-x="984" vert-adv-y="1000"  />

    
    <glyph glyph-name="uni4EA7" unicode="&#x4EA7;" d="M930 613L743 613Q718 531 679 435L897 435L897 362L228 362L228 277Q228 150 200 61.50Q172-27 103-114L32-73Q102 9 128 88Q154 167 154 292L154 435L330 435Q298 549 273 613L79 613L79 686L474 686Q453 758 438 796L512 810Q526 776 555 686L930 686L930 613M598 435Q632 509 663 613L354 613Q386 518 410 435L598 435Z"  horiz-adv-x="984" vert-adv-y="1000"  />

    
    <glyph glyph-name="uni4EAC" unicode="&#x4EAC;" d="M916 691L916 623L73 623L73 691L464 691Q442 764 429 796L503 810Q522 765 544 691L916 691M796 250L544 250L544 24Q544-43 524-62Q504-81 435-87L368-93L343-19L409-14Q447-11 456 0Q465 11 465 48L465 250L190 250L190 530L796 530L796 250M265 462L265 318L720 318L720 462L265 462M32-7Q92 28 168.50 91Q245 154 281 200L337 149Q244 39 84-67L32-7M694 196Q855 82 950-11L904-73Q862-27 782 41Q702 109 649 144L694 196Z"  horiz-adv-x="984" vert-adv-y="1000"  />

    
    <glyph glyph-name="uni4EBA" unicode="&#x4EBA;" d="M522 639Q541 429 641.50 267.50Q742 106 925-30L869-98Q579 137 492 430Q416 139 113-90L58-25Q267 127 356 292Q445 457 448 696Q450 728 450 792L525 789Q525 717 523 667Q523 648 522 639Z"  horiz-adv-x="984" vert-adv-y="1000"  />

    
    <glyph glyph-name="uni4EC5" unicode="&#x4EC5;" d="M335 780Q302 670 255 570L255-101L182-101L182 437Q132 358 77 287L19 336Q181 538 257 797L335 780M666 202Q766 88 947-33L898-104Q720 11 611 138Q506 25 331-96L272-31Q460 86 564 197Q435 374 386 628L457 649Q509 412 619 261Q739 418 785 658L357 658L357 734L864 734L864 659Q808 380 666 202Z"  horiz-adv-x="984" vert-adv-y="1000"  />

    
    <glyph glyph-name="uni4ECE" unicode="&#x4ECE;" d="M952-46L891-105Q796 5 735.50 116.50Q675 228 644 363Q616 242 554.50 131.50Q493 21 384-100L315-43Q429 70 491 179.50Q553 289 576.50 398.50Q600 508 605 672Q607 712 607 800L683 796Q683 732 681 672L678 612Q690 399 756.50 244Q823 89 952-46M445 196Q401 289 320 407Q300 271 253.50 163Q207 55 115-80L42-32Q169 147 213 281.50Q257 416 263 655Q269 762 267 799L342 795Q342 710 339 653Q338 600 332 517Q373 466 425 387.50Q477 309 504 257L445 196Z"  horiz-adv-x="984" vert-adv-y="1000"  />

    
    <glyph glyph-name="uni4ED8" unicode="&#x4ED8;" d="M346 778Q313 677 266 577L266-91L188-91L188 433Q145 363 85 285L22 338Q199 554 270 793L346 778M937 603L937 527L778 527L778 35Q778-27 757-49.50Q736-72 671-80L579-91L553-15L660-3Q684 0 691 11Q698 22 698 53L698 527L323 527L323 603L698 603L698 790L778 786L778 603L937 603M442 448Q474 406 520.50 335Q567 264 589 219L526 164Q496 229 453.50 300.50Q411 372 380 410L442 448Z"  horiz-adv-x="984" vert-adv-y="1000"  />

    
    <glyph glyph-name="uni4EE3" unicode="&#x4EE3;" d="M821 38Q841 87 853 155L916 110Q893 24 872-23Q854-64 829-78.50Q804-93 768-93Q731-93 698-71.50Q665-50 630 3Q545 130 512 419L316 401L309 473L504 491Q498 560 496 609L486 800L563 800Q566 694 571 606Q573 563 579 498L919 530L925 457L587 426Q620 150 693 49Q733-6 768-6Q803-6 821 38M365 779Q326 670 275 570L275-100L201-100L201 439Q149 356 81 269L27 325Q104 413 175 541Q246 669 287 794L365 779M804 556Q780 589 729.50 635Q679 681 640 711L683 764Q714 743 766.50 697Q819 651 851 618L804 556Z"  horiz-adv-x="984" vert-adv-y="1000"  />

    
    <glyph glyph-name="uni4EE5" unicode="&#x4EE5;" d="M552 525L489 475Q412 643 332 748L392 784Q470 688 552 525M740 216Q863 104 941-7L886-70Q815 47 704 152Q659 84 585.50 24.50Q512-35 398-98L349-31Q458 27 527.50 82.50Q597 138 639 207Q681 276 700 351.50Q719 427 726 536L730 778L807 775Q809 608 804 530Q792 327 740 216M455 332L501 268Q373 167 211 27Q172-7 143-39L92 23Q128 60 128 88L128 755L205 752L205 123Q409 290 455 332Z"  horiz-adv-x="984" vert-adv-y="1000"  />

    
    <glyph glyph-name="uni4EEC" unicode="&#x4EEC;" d="M424 808Q451 784 491.50 735Q532 686 553 655L501 598Q483 632 443 683Q403 734 375 762L424 808M242 806L313 792Q281 688 236 582L236-91L168-91L168 442Q126 364 78 295L23 347Q85 430 147.50 560Q210 690 242 806M569 737L883 737L883 50Q883-30 855.50-55Q828-80 739-87L689-91L664-18L726-14Q781-10 795.50 5Q810 20 810 70L810 666L569 666L569 737M355-85L355 620L428 618L428-85L355-85Z"  horiz-adv-x="984" vert-adv-y="1000"  />

    
    <glyph glyph-name="uni4EF6" unicode="&#x4EF6;" d="M943 286L943 214L678 214L678-100L602-100L602 214L307 214L307 286L602 286L602 522L455 522Q427 432 390 352L315 379Q397 552 434 757L509 741Q496 666 476 594L602 594L602 807L678 803L678 594L901 594L901 522L678 522L678 286L943 286M323 773Q290 666 252 583L252-98L179-98L179 443Q133 365 77 292L19 341Q173 545 245 789L323 773Z"  horiz-adv-x="984" vert-adv-y="1000"  />

    
    <glyph glyph-name="uni4EFB" unicode="&#x4EFB;" d="M329 776Q295 669 254 582L254-93L180-93L180 445Q139 378 80 299L18 347Q185 567 251 793L329 776M940 325L659 325L659 34L911 34L911-40L335-40L335 34L581 34L581 325L309 325L309 401L581 401L581 643Q451 626 354 623L339 697Q439 701 603.50 722.50Q768 744 872 765L888 690Q809 674 659 653L659 401L940 401L940 325Z"  horiz-adv-x="984" vert-adv-y="1000"  />

    
    <glyph glyph-name="uni4EFD" unicode="&#x4EFD;" d="M698 805Q766 569 951 406L890 352Q806 435 735 546.50Q664 658 627 787L698 805M324 781Q290 665 247 568L247-100L177-100L177 432Q127 351 76 286L20 337Q91 426 154 550.50Q217 675 253 797L324 781M574 761Q504 577 373 418L818 418Q813 268 800 64Q795-14 759-43.50Q723-73 638-79L586-83L558-6L632-1Q686 3 703 22.50Q720 42 725 101Q733 189 739 344L543 344Q543 340 542.50 332Q542 324 542 321Q535 171 490.50 82Q446-7 331-108L267-53Q379 31 419.50 107Q460 183 469 323Q470 326 470.50 333Q471 340 471 344L373 344L373 418Q339 378 322 360L266 409Q420 556 497 778L574 761Z"  horiz-adv-x="984" vert-adv-y="1000"  />

    
    <glyph glyph-name="uni4F01" unicode="&#x4F01;" d="M493 723Q431 637 316 541Q201 445 74 371L27 439Q164 512 278 608Q392 704 458 799L528 799Q676 589 955 440L907 371Q618 547 493 723M545 245L545 18L914 18L914-53L57-53L57 18L199 18L199 383L273 380L273 18L469 18L469 535L545 532L545 319L824 319L824 245L545 245Z"  horiz-adv-x="984" vert-adv-y="1000"  />

    
    <glyph glyph-name="uni4F1A" unicode="&#x4F1A;" d="M530 802Q662 613 949 475L910 406Q791 472 673 560Q555 648 494 730Q430 642 320.50 556.50Q211 471 77 402L36 467Q176 534 284.50 620.50Q393 707 459 802L530 802M241 491L746 491L746 423L241 423L241 491M84 223L84 293L901 293L901 223L471 223Q386 106 294 21Q401 23 688 35Q631 104 585 147L640 191Q682 152 747.50 76Q813 0 847-50L792-109Q774-78 740-32Q396-41 262-52Q197-57 164-63L149 6Q179 17 212 41Q292 110 377 223L84 223Z"  horiz-adv-x="984" vert-adv-y="1000"  />

    
    <glyph glyph-name="uni4F20" unicode="&#x4F20;" d="M937 411L537 411Q518 349 501 304L846 304L846 235Q794 146 708 39Q792-3 845-36L814-118Q739-63 609 1.50Q479 66 386 99L414 165Q512 132 641 71Q714 161 755 234L421 234L420 298Q444 360 459 411L296 411L296 479L479 479Q497 549 508 596L349 596L349 664L522 664Q537 738 546 809L619 799Q608 720 597 664L888 664L888 596L583 596Q567 523 555 479L937 479L937 411M340 788Q304 682 254 581L254-104L182-104L182 452Q136 378 72 298L19 352Q87 431 152.50 551.50Q218 672 264 803L340 788Z"  horiz-adv-x="984" vert-adv-y="1000"  />

    
    <glyph glyph-name="uni4F46" unicode="&#x4F46;" d="M329 778Q286 653 245 566L245-111L172-111L172 429Q128 358 75 290L22 348Q163 517 251 795L329 778M866 737L866 173L386 173L386 737L866 737M789 664L462 664L462 494L789 494L789 664M462 249L789 249L789 422L462 422L462 249M303 19L943 19L943-56L303-56L303 19Z"  horiz-adv-x="984" vert-adv-y="1000"  />

    
    <glyph glyph-name="uni4F4D" unicode="&#x4F4D;" d="M328 793Q290 675 248 579L248-90L176-90L176 438Q131 361 76 290L17 343Q177 560 249 806L328 793M916 639L916 568L332 568L332 639L597 639Q576 711 543 785L613 805Q645 738 675 639L916 639M696 25L934 25L934-46L304-46L304 25L618 25Q655 124 698 274.50Q741 425 759 519L838 503Q817 409 775 266.50Q733 124 696 25M501 88Q491 166 456 292Q421 418 390 493L460 513Q490 442 525.50 316.50Q561 191 571 116L501 88Z"  horiz-adv-x="984" vert-adv-y="1000"  />

    
    <glyph glyph-name="uni4F4F" unicode="&#x4F4F;" d="M643 21L934 21L934-52L297-52L297 21L566 21L566 270L343 270L343 343L566 343L566 562L319 562L319 635L576 635Q545 756 529 794L603 808Q617 776 656 635L902 635L902 562L643 562L643 343L870 343L870 270L643 270L643 21M321 772Q286 663 243 566L243-95L171-95L171 426Q130 356 81 291L25 351Q177 557 249 791L321 772Z"  horiz-adv-x="984" vert-adv-y="1000"  />

    
    <glyph glyph-name="uni4F53" unicode="&#x4F53;" d="M677 559Q735 418 805 316.50Q875 215 972 134L919 70Q813 169 747.50 276Q682 383 631 523L631 144L805 144L805 75L631 75L631-100L555-100L555 75L387 75L389 144L555 144L555 510Q484 287 292 79L236 133L236-92L163-92L163 413Q123 344 76 283L20 333Q182 552 248 798L319 776Q284 658 236 554L236 135Q434 330 512 559L314 559L314 630L555 630L555 800L631 797L631 630L902 630L902 559L677 559Z"  horiz-adv-x="984" vert-adv-y="1000"  />

    
    <glyph glyph-name="uni4F5C" unicode="&#x4F5C;" d="M920 580L608 580L608 423L865 423L865 351L608 351L608 189L883 189L883 116L608 116L608-102L531-102L531 580L486 580Q422 464 336 356L281 409Q426 584 501 802L571 773Q550 714 524 656L920 656L920 580M336 757Q288 637 251 564L251-98L175-98L175 430Q130 361 74 294L20 350Q176 531 262 786L336 757Z"  horiz-adv-x="984" vert-adv-y="1000"  />

    
    <glyph glyph-name="uni4F60" unicode="&#x4F60;" d="M359 395L298 435Q417 605 475 802L551 792Q534 738 505 670L902 670L902 598Q867 511 822 432L754 457Q789 516 824 598L473 598Q414 477 359 395M316 782Q282 673 238 574L238-94L167-94L167 435Q130 371 81 303L28 350Q90 439 149 559Q208 679 239 794L316 782M581 46L581 518L654 516L654 20Q654-37 627.50-60Q601-83 526-87L476-91L450-16L510-12Q554-9 567.50 2Q581 13 581 46M427 373L491 355Q433 170 328-9L264 20Q310 95 356 192.50Q402 290 427 373M785 373Q823 311 873 200Q923 89 945 19L883-20Q862 54 812.50 167.50Q763 281 726 344L785 373Z"  horiz-adv-x="984" vert-adv-y="1000"  />

    
    <glyph glyph-name="uni4F7F" unicode="&#x4F7F;" d="M303 787Q273 674 231 570L231-102L160-102L160 421Q125 358 77 288L23 341Q82 426 138.50 550Q195 674 230 800L303 787M954-15L928-83Q693-48 554 23Q484-38 293-99L258-34Q424 9 491 60Q403 119 346 205L397 246Q454 159 535 107Q567 158 569 253L338 253L338 511L569 511Q569 528 568.50 562Q568 596 568 612L303 612L303 680L568 680L568 800L641 798L641 680L915 680L915 612L641 612Q641 596 641.50 562Q642 528 642 511L874 511L874 253L642 253Q641 138 598 71Q726 9 954-15M407 445L407 320L569 320L569 445L407 445M803 445L642 445L642 320L803 320L803 445Z"  horiz-adv-x="984" vert-adv-y="1000"  />

    
    <glyph glyph-name="uni4F8B" unicode="&#x4F8B;" d="M297 790Q262 669 228 582L228-99L162-99L162 436Q130 372 81 298L26 346Q150 520 223 800L297 790M816 791L884 789L884 36Q884-30 855-55Q826-80 743-86L689-90L665-19L734-15Q784-12 800 2.50Q816 17 816 58L816 791M311 676L311 745L637 745L637 676L470 676Q457 599 439 531L604 531L604 454Q569 252 514 140.50Q459 29 314-108L265-56Q393 60 451 180.50Q509 301 536 461L419 461Q404 412 383 361Q440 310 470 274L433 208Q410 243 354 295Q330 244 300 193L247 236Q359 428 403 676L311 676M730 685L730 124L663 124L663 687L730 685Z"  horiz-adv-x="984" vert-adv-y="1000"  />

    
    <glyph glyph-name="uni4F9B" unicode="&#x4F9B;" d="M322 794Q287 681 240 583L240-97L167-97L167 451Q130 391 69 308L16 361Q85 445 148 565Q211 685 248 810L322 794M776 292L934 292L934 219L280 219L280 292L436 292L436 543L324 543L324 613L436 613L436 800L511 797L511 613L703 613L703 800L776 797L776 613L900 613L900 543L776 543L776 292M511 543L511 292L703 292L703 543L511 543M281-42Q338-1 400.50 61.50Q463 124 503 179L558 131Q463 16 335-97L281-42M705 177Q747 142 811.50 73.50Q876 5 912-41L865-100Q834-53 771.50 13Q709 79 657 126L705 177Z"  horiz-adv-x="984" vert-adv-y="1000"  />

    
    <glyph glyph-name="uni4FDD" unicode="&#x4FDD;" d="M323 777Q286 659 249 572L249-103L178-103L178 429Q136 356 82 288L25 338Q182 533 253 790L323 777M844 752L844 444L381 444L381 752L844 752M769 514L769 682L456 682L456 514L769 514M659 262Q765 120 959 24L913-41Q749 52 645 185L645-100L574-100L574 182Q484 58 310-46L260 16Q455 115 554 262L303 262L303 329L574 329L574 411L645 407L645 329L918 329L918 262L659 262Z"  horiz-adv-x="984" vert-adv-y="1000"  />

    
    <glyph glyph-name="uni4FE1" unicode="&#x4FE1;" d="M664 689L938 689L938 620L311 620L311 689L585 689Q565 756 552 788L626 802Q633 784 664 689M319 782Q284 665 241 571L241-98L168-98L168 425Q132 362 87 296L26 344Q105 453 164 573.50Q223 694 251 797L319 782M365 466L365 530L866 530L866 466L365 466M365 320L365 385L866 385L866 320L365 320M366-98L366 233L864 233L864-98L787-98L787-42L439-42L439-98L366-98M787 166L439 166L439 25L787 25L787 166Z"  horiz-adv-x="984" vert-adv-y="1000"  />

    
    <glyph glyph-name="uni4FEE" unicode="&#x4FEE;" d="M720 497Q815 447 953 413L931 345Q766 391 659 456Q557 392 389 338L362 401Q515 447 601 496Q543 542 501 597Q458 544 405 498L365 552Q490 662 559 813L620 787Q611 766 589 726L865 726L865 666Q809 566 720 497M292 786Q260 663 215 555L215-100L151-100L151 419Q125 368 78 294L21 341Q82 433 141 560Q200 687 227 797L292 786M287 68L287 667L352 664L352 68L287 68M540 648Q586 583 660 533Q737 587 784 664L551 664Q546 655 540 648M729 403L760 349Q613 250 445 191L417 254Q586 308 729 403M431 47L401 105Q624 175 803 300L838 249Q667 121 431 47M357-43Q671 37 883 195L918 145Q715-18 384-104L357-43Z"  horiz-adv-x="984" vert-adv-y="1000"  />

    
    <glyph glyph-name="uni50" unicode="&#x50;" d="M92 0L92 694L285 694Q428 694 483.50 642.50Q539 591 539 472Q539 350 480 298Q421 246 285 246L182 246L182 0L92 0M182 321L277 321Q374 321 410.50 353Q447 385 447 472Q447 552 410 584Q373 616 277 616L182 616L182 321Z"  horiz-adv-x="597" vert-adv-y="1000"  />

    
    <glyph glyph-name="uni505A" unicode="&#x505A;" d="M772 173Q841 64 961-41L908-99Q797 3 732 104Q667 5 546-102L500-43Q502-41 519-27Q536-13 544-5L293-5L293 372L386 372L386 552L261 552L261 622L386 622L386 802L454 799L454 622L577 622L577 552L454 552L454 372L545 372L545-4Q638 79 695 169Q637 282 615 424Q598 392 579 364L533 419Q580 490 618.50 599Q657 708 673 809L739 797Q724 713 702 637L935 637L935 566L865 566Q844 315 772 173M265 784Q240 680 208 588L208-98L142-98L142 429Q106 358 77 310L24 368Q140 542 197 799L265 784M659 517Q676 362 733 244Q786 366 803 566L678 566Q668 537 659 517M480 64L480 302L356 302L356 64L480 64Z"  horiz-adv-x="984" vert-adv-y="1000"  />

    
    <glyph glyph-name="uni51" unicode="&#x51;" d="M670 347Q670 178 620 97.50Q570 17 465-2L580-145L473-145L376-10L371-10Q294-10 241 6.50Q188 23 148.50 63Q109 103 90.50 173Q72 243 72 347Q72 450 90.50 520Q109 590 148.50 630Q188 670 241 687Q294 704 371 704Q448 704 501.50 687.50Q555 671 594 630.50Q633 590 651.50 520Q670 450 670 347M371 67Q494 67 535.50 129Q577 191 577 347Q577 499 535 563.50Q493 628 371 628Q250 628 208 563.50Q166 499 166 347Q166 192 207.50 129.50Q249 67 371 67Z"  horiz-adv-x="743" vert-adv-y="1000"  />

    
    <glyph glyph-name="uni5141" unicode="&#x5141;" d="M853 181L929 157Q928 116 918 49Q908-18 881.50-41Q855-64 780-68Q725-71 670-68Q600-64 569-35.50Q538-7 538 65L538 407Q431 403 384 400Q384 347 383 329Q381 219 352.50 145.50Q324 72 269 17.50Q214-37 104-109L46-41Q195 44 247.50 117Q300 190 304 329Q305 347 305 397Q233 394 192 392Q148 391 101 383L77 463Q123 475 149 498Q219 556 299 647.50Q379 739 437 826L507 784Q371 594 231 469Q482 477 716 487Q648 574 586 634L642 679Q699 625 776 533.50Q853 442 888 387L828 332Q799 379 771 415L620 410L620 83Q620 40 635 26.50Q650 13 693 9Q728 6 763 9Q812 14 824.50 25Q837 36 845 82Q853 128 853 181Z"  horiz-adv-x="984" vert-adv-y="1000"  />

    
    <glyph glyph-name="uni5143" unicode="&#x5143;" d="M798 745L798 669L170 669L170 745L798 745M852 172L927 148Q922 95 915 53Q904-13 880-33Q856-53 777-62Q739-66 677-62Q607-57 581.50-30.50Q556-4 556 69L556 405L389 405Q387 315 385 300Q373 164 314 78.50Q255-7 100-102L44-37Q191 42 242 113Q293 184 304 300Q307 328 309 405L89 405L89 480L890 480L890 405L637 405L637 87Q637 42 646.50 29.50Q656 17 695 14Q727 12 765 14Q808 16 822 30Q836 44 843 86Q849 125 852 172Z"  horiz-adv-x="984" vert-adv-y="1000"  />

    
    <glyph glyph-name="uni5165" unicode="&#x5165;" d="M943-22L884-89Q753 10 662.50 144Q572 278 498 465Q447 309 345.50 167.50Q244 26 102-82L45-22Q203 95 306.50 252Q410 409 448 579Q425 622 395 651.50Q365 681 309 721L356 776Q434 728 475 672Q516 616 567 483Q624 335 722 200Q820 65 943-22Z"  horiz-adv-x="984" vert-adv-y="1000"  />

    
    <glyph glyph-name="uni5168" unicode="&#x5168;" d="M790 398L532 398L532 252L816 252L816 180L532 180L532 14L901 14L901-56L83-56L83 14L453 14L453 180L168 180L168 252L453 252L453 398L194 398L194 457Q156 433 75 389L35 461Q189 536 290.50 616.50Q392 697 457 796L527 796Q654 599 951 458L911 390Q844 427 790 462L790 398M492 722Q396 588 216 471L776 471Q580 601 492 722Z"  horiz-adv-x="984" vert-adv-y="1000"  />

    
    <glyph glyph-name="uni516C" unicode="&#x516C;" d="M621 788Q680 636 753.50 535.50Q827 435 951 356L890 287Q772 374 692.50 490.50Q613 607 552 761L621 788M427 756Q301 466 91 292L33 351Q148 437 229.50 549.50Q311 662 354 780L427 756M562 249L627 287Q752 102 826-61L751-104Q732-55 707-4Q434-20 263-42Q212-49 164-61L142 15Q190 25 209 50Q268 117 333 236.50Q398 356 446 474L520 443Q474 331 412.50 219Q351 107 292 35Q413 47 672 65Q624 157 562 249Z"  horiz-adv-x="984" vert-adv-y="1000"  />

    
    <glyph glyph-name="uni5173" unicode="&#x5173;" d="M529 284Q608 66 929-23L889-100Q752-60 643.50 17Q535 94 484 202Q395 29 91-100L46-27Q228 43 319 120Q410 197 435 284L78 284L78 359L445 359L445 363L445 540L131 540L131 612L332 612Q286 704 229 771L289 809Q313 780 349.50 728Q386 676 404 643L362 612L548 612Q626 706 677 810L747 781Q697 686 641 612L838 612L838 540L527 540L525 367L525 359L894 359L894 284L529 284Z"  horiz-adv-x="984" vert-adv-y="1000"  />

    
    <glyph glyph-name="uni517B" unicode="&#x517B;" d="M941 153L912 81Q776 123 679 190L679-97L604-97L604 209L657 205Q587 259 544 319L425 319Q326 182 71 83L34 149Q239 221 333 319L64 319L64 383L382 383Q408 427 423 476L139 476L139 536L438 536Q446 575 451 629L108 629L108 693L314 693Q274 753 244 783L298 824Q357 762 382 721L348 693L591 693Q644 760 680 826L742 790Q718 746 677 693L874 693L874 629L526 629Q521 575 513 536L842 536L842 476L499 476Q484 422 464 383L918 383L918 319L630 319Q683 260 756 221.50Q829 183 941 153M130-64Q211-31 252.50 8Q294 47 306 90Q318 133 318 206L391 201Q391 73 347.50 4.50Q304-64 177-123L130-64Z"  horiz-adv-x="984" vert-adv-y="1000"  />

    
    <glyph glyph-name="uni5185" unicode="&#x5185;" d="M529 648L855 648L855 38Q855-33 828-53.50Q801-74 706-86L657-92L630-16L694-10Q752-5 765.50 7Q779 19 779 63L779 575L529 575Q527 503 515 448Q573 400 649 321.50Q725 243 763 191L711 125Q679 174 615 245Q551 316 490 373Q435 244 265 115L216 179Q352 280 401 366Q450 452 452 575L204 575L204-90L129-90L129 648L452 648L452 800L529 797L529 648Z"  horiz-adv-x="984" vert-adv-y="1000"  />

    
    <glyph glyph-name="uni518C" unicode="&#x518C;" d="M941 419L941 347L820 347L820 24Q820-41 795.50-63.50Q771-86 694-92L644-96L620-19L679-15Q724-12 737 1.50Q750 15 750 53L750 347L613 347Q612 170 591 81Q570-8 506-113L434-76Q500 17 520 97Q540 177 542 347L442 347L442 40Q442-24 414-50.50Q386-77 313-81L265-85L243-11L299-7Q341-5 356 8.50Q371 22 371 58L371 347L243 347Q241 173 217.50 85.50Q194-2 127-109L54-73Q124 21 147 100.50Q170 180 173 347L44 347L44 419L173 419L173 421L173 748L442 748L442 419L542 419L542 421L542 748L820 748L820 419L941 419M243 419L371 419L371 677L243 677L243 419M613 419L750 419L750 677L613 677L613 419Z"  horiz-adv-x="984" vert-adv-y="1000"  />

    
    <glyph glyph-name="uni518D" unicode="&#x518D;" d="M942 206L942 137L813 137L813 34Q813-33 788.50-53.50Q764-74 684-83L628-89L603-14L662-9Q714-4 726 6.50Q738 17 738 59L738 137L246 137L246-93L173-93L173 137L43 137L43 206L173 206L173 572L455 572L455 675L83 675L83 743L903 743L903 675L530 675L530 572L813 572L813 206L942 206M455 505L246 505L246 391L455 391L455 505M738 505L530 505L530 391L738 391L738 505M246 324L246 206L455 206L455 324L246 324M530 206L738 206L738 324L530 324L530 206Z"  horiz-adv-x="984" vert-adv-y="1000"  />

    
    <glyph glyph-name="uni519C" unicode="&#x519C;" d="M641 256Q746 127 943 34L894-41Q710 58 609 175Q508 292 449 481Q406 398 343 323L343 15Q493 77 563 104L577 27Q473-9 329-69Q295-83 263-103L230-33Q269-11 269 28L269 245Q181 163 55 81L9 152Q180 256 279 367.50Q378 479 421 619L185 619L185 472L113 472L113 689L439 689Q450 737 457 812L539 804Q533 745 521 689L865 689L865 492L792 492L792 619L503 619L491 581Q530 422 598 317Q695 381 780 472L831 407Q735 317 641 256Z"  horiz-adv-x="984" vert-adv-y="1000"  />

    
    <glyph glyph-name="uni51B3" unicode="&#x51B3;" d="M587 278Q626 176 713 102.50Q800 29 944-26L901-102Q755-32 671.50 37Q588 106 543 200Q509 115 432 43.50Q355-28 222-102L176-36Q323 37 395 109.50Q467 182 487 278L271 278L271 349L495 349Q496 356 496 371L498 573L311 573L311 645L498 645L498 806L576 802L576 645L821 645L821 349L923 349L923 278L587 278M259 499L187 459Q172 513 135.50 596Q99 679 70 728L136 760Q165 714 203.50 632Q242 550 259 499M574 375Q574 358 573 349L749 349L749 573L575 573Q575 531 574.50 484Q574 437 574 407Q574 377 574 375M224 367L254 359Q238 276 197 147.50Q156 19 123-49L49-25Q82 44 123 170.50Q164 297 179 377L224 367Z"  horiz-adv-x="984" vert-adv-y="1000"  />

    
    <glyph glyph-name="uni51B5" unicode="&#x51B5;" d="M269 502L201 461Q185 515 144 600.50Q103 686 72 735L133 768Q164 723 207 639Q250 555 269 502M878 145L948 123Q945 52 932-9Q925-43 903-56Q881-69 824-71Q787-72 750-71Q696-69 673.50-49Q651-29 651 22L651 338L519 338Q519 311 517 289Q512 186 486 117Q460 48 410.50-2Q361-52 269-107L221-48Q348 23 395.50 93Q443 163 448 293Q450 315 450 338L340 338L340 738L854 738L854 338L724 338L724 46Q724 20 734 11Q744 2 774 0Q792-1 809 0Q841 3 852.50 10.50Q864 18 868 41Q876 88 878 145M414 668L414 409L780 409L780 668L414 668M271 338Q194 84 126-59L57-20Q144 146 203 369L271 338Z"  horiz-adv-x="984" vert-adv-y="1000"  />

    
    <glyph glyph-name="uni51B6" unicode="&#x51B6;" d="M725 702Q766 653 823.50 565.50Q881 478 911 417L853 374Q845 390 819 438Q448 426 372 419Q341 416 305 409L284 481Q320 493 340 515Q386 564 449 654Q512 744 545 814L613 781Q577 713 518.50 629Q460 545 414 494L777 510Q716 609 672 666L725 702M266 496L198 455Q182 509 141 594.50Q100 680 69 729L130 762Q161 717 204 633Q247 549 266 496M200 363L268 332Q191 78 123-65L54-26Q141 140 200 363M347-99L347 306L843 306L843-99L771-99L771-43L419-43L419-99L347-99M771 235L419 235L419 29L771 29L771 235Z"  horiz-adv-x="984" vert-adv-y="1000"  />

    
    <glyph glyph-name="uni51FA" unicode="&#x51FA;" d="M786 302L865 299L865-101L786-101L786-53L122-53L122 300L200 296L200 22L454 22L454 379L163 379L163 717L240 714L240 453L454 453L454 805L529 803L529 453L745 453L745 717L822 714L822 379L529 379L529 22L786 22L786 302Z"  horiz-adv-x="984" vert-adv-y="1000"  />

    
    <glyph glyph-name="uni52" unicode="&#x52;" d="M599 0L493 0L302 280Q291 279 268 279L182 279L182 0L92 0L92 694L268 694Q414 694 473.50 648.50Q533 603 533 489Q533 400 498.50 353.50Q464 307 391 290L599 0M260 354Q363 354 402.50 379.50Q442 405 442 489Q442 565 401.50 590.50Q361 616 260 616L182 616L182 354L260 354Z"  horiz-adv-x="614" vert-adv-y="1000"  />

    
    <glyph glyph-name="uni5206" unicode="&#x5206;" d="M607 808Q658 675 738.50 582.50Q819 490 953 408L907 339Q769 424 689.50 518.50Q610 613 540 780L607 808M438 763Q380 635 299 539Q218 443 88 348L34 411Q264 552 366 791L438 763M211 347L211 421L755 421Q741 160 728 48Q720-21 698.50-41Q677-61 610-67L533-73L504 2L582 7Q621 10 633.50 23.50Q646 37 651 79Q661 163 671 347L405 347Q404 333 400 283Q386 145 330.50 62Q275-21 118-109L68-48Q130-16 171.50 13Q213 42 240 69Q267 96 283.50 131Q300 166 308 199Q316 232 324 284Q327 304 330 347L211 347Z"  horiz-adv-x="984" vert-adv-y="1000"  />

    
    <glyph glyph-name="uni5207" unicode="&#x5207;" d="M416 227L434 147Q419 139 342.50 91Q266 43 247 30Q218 12 197-8L153 58Q172 75 177.50 88.50Q183 102 183 122L183 449L44 431L36 506L183 524L183 803L258 800L258 534L428 555L431 480L258 458L258 126Q303 152 416 227M400 724L884 724Q875 373 861 77Q857 0 822-30Q787-60 693-69L632-75L605 5L682 11Q741 16 760 33.50Q779 51 782 107Q784 145 792.50 375Q801 605 802 645L613 645Q611 549 608 492Q598 256 552.50 141Q507 26 365-109L300-55Q397 35 441.50 102Q486 169 505 254Q524 339 531 499Q534 553 536 645L400 645L400 724Z"  horiz-adv-x="984" vert-adv-y="1000"  />

    
    <glyph glyph-name="uni5220" unicode="&#x5220;" d="M816 789L881 787L881 34Q881-29 853.50-56Q826-83 751-87L700-90L678-25L740-21Q787-18 801.50-3.50Q816 11 816 52L816 789M588 749L588 411L649 411L649 345L588 345L588 25Q588-31 570-51.50Q552-72 500-77L467-80L446-12L484-8Q512-6 519.50 6Q527 18 527 56L528 345L446 345Q445 176 428.50 87Q412-2 368-96L310-71Q354 22 369 100Q384 178 386 345L321 345L321 36Q321-20 303-41.50Q285-63 233-67L199-70L180-2L215 2Q242 4 251.50 17Q261 30 261 63L261 345L184 345Q182 174 162.50 88.50Q143 3 93-97L36-67Q85 28 102.50 104Q120 180 122 345L46 345L46 411L123 411L123 421L123 749L321 749L321 411L386 411L386 421L386 749L588 749M737 697L737 130L674 130L674 699L737 697M184 411L261 411L261 682L184 682L184 411M446 411L528 411L529 682L446 682L446 411Z"  horiz-adv-x="984" vert-adv-y="1000"  />

    
    <glyph glyph-name="uni522B" unicode="&#x522B;" d="M790 788L861 785L861 32Q861-33 830-60Q799-87 711-93L652-97L626-21L698-17Q753-14 771.50 1.50Q790 17 790 59L790 788M295 454L291 332L514 332Q510 203 503 59Q499-13 464.50-42Q430-71 345-76L289-79L264-8L336-4Q391-1 410.50 17Q430 35 434 88Q435 102 436.50 139Q438 176 439.50 215Q441 254 441 261L285 261Q273 140 234.50 65Q196-10 106-107L40-55Q128 25 165 90Q202 155 213 261L68 261L68 332L219 332Q219 343 221 389.50Q223 436 223 454L115 454L115 751L500 751L500 454L295 454M678 708L678 138L608 138L608 712L678 708M187 684L187 522L428 522L428 684L187 684Z"  horiz-adv-x="984" vert-adv-y="1000"  />

    
    <glyph glyph-name="uni5230" unicode="&#x5230;" d="M803 787L877 784L877 28Q877-39 846.50-64.50Q816-90 727-96L669-100L641-25L712-21Q766-18 784.50-2.50Q803 13 803 54L803 787M584 70L585 31L586-2Q281-32 52-50L40 22Q156 29 284 42L284 194L83 194L83 265L284 265L284 408L156 402Q124 401 91 393L74 457Q95 462 105 473Q163 534 248 667L63 667L63 738L572 738L572 667L331 667Q253 546 188 467Q207 468 309 472.50Q411 477 452 479Q409 543 378 580L432 617Q464 579 512 511Q560 443 583 401L524 355Q513 380 491 417Q416 414 357 411L357 265L557 265L557 194L357 194L357 49Q395 52 475 60Q555 68 584 70M696 706L696 119L624 119L624 709L696 706Z"  horiz-adv-x="984" vert-adv-y="1000"  />

    
    <glyph glyph-name="uni5236" unicode="&#x5236;" d="M370 593L371 471L584 471L584 403L371 403L371 301L554 301L554 52Q554 10 534.50-6Q515-22 464-29L429-34L405 32L440 36Q469 40 478 47.50Q487 55 487 79L487 233L371 233L372-107L301-107L301 233L179 233L179-39L115-39L115 301L301 301L301 403L51 403L51 471L301 471L301 593L177 593Q156 534 136 492L72 514Q127 636 155 766L221 755Q213 713 198 660L301 660L301 799L370 796L370 660L564 660L564 593L370 593M816 787L886 784L886 29Q886-33 862-56Q838-79 766-87L703-94L677-22L744-15Q789-10 802.50 1.50Q816 13 816 51L816 787M716 702L716 110L647 110L647 705L716 702Z"  horiz-adv-x="984" vert-adv-y="1000"  />

    
    <glyph glyph-name="uni5237" unicode="&#x5237;" d="M817 799L884 797L884 27Q884-34 861.50-56Q839-78 763-85L702-91L679-22L751-16Q794-12 805.50-1.50Q817 9 817 45L817 799M571 505L198 505L198 425Q198 175 91-61L32-33Q135 181 135 438L135 757L571 757L571 505M720 717L720 128L656 128L656 719L720 717M504 692L198 692L198 569L504 569L504 692M425 472L425 376L573 376L573 87Q573 35 559.50 18.50Q546 2 500-5L465-10L444 49L480 53Q503 56 508.50 65Q514 74 514 105L514 313L425 313L425-93L364-93L364 313L279 313L279-8L222-8L222 376L364 376L364 474L425 472Z"  horiz-adv-x="984" vert-adv-y="1000"  />

    
    <glyph glyph-name="uni524D" unicode="&#x524D;" d="M660 680L925 680L925 612L53 612L53 680L305 680Q266 756 243 781L309 819Q321 805 349 761Q377 717 384 701L345 680L572 680Q629 764 656 826L729 794Q724 785 699 743.50Q674 702 660 680M764 49L764 545L837 541L837 24Q837-36 817.50-57Q798-78 737-82L673-87L647-16L728-9Q749-7 756.50 6Q764 19 764 49M128-91L128 524L475 524L475 27Q475-36 456-59Q437-82 377-86L323-90L300-22L366-17Q387-16 395-2Q403 12 403 42L403 126L201 126L201-91L128-91M577 79L577 505L646 501L646 79L577 79M403 455L201 455L201 357L403 357L403 455M201 192L403 192L403 291L201 291L201 192Z"  horiz-adv-x="984" vert-adv-y="1000"  />

    
    <glyph glyph-name="uni529B" unicode="&#x529B;" d="M454 604L846 604Q841 410 824 71Q820-11 779.50-42.50Q739-74 627-82L548-88L522-8L619-1Q695 4 719 24Q743 44 746 108Q760 396 762 525L451 525Q447 396 429.50 309.50Q412 223 368.50 149Q325 75 265 18.50Q205-38 101-112L45-47Q142 20 198 70.50Q254 121 294.50 187Q335 253 351.50 330.50Q368 408 373 525L91 525L91 604L375 604Q377 639 379 711.50Q381 784 382 803L461 800Q461 789 459.50 755.50Q458 722 456.50 676.50Q455 631 454 604Z"  horiz-adv-x="984" vert-adv-y="1000"  />

    
    <glyph glyph-name="uni529E" unicode="&#x529E;" d="M449 628L746 628Q717 169 709 62Q703-18 667-45.50Q631-73 519-86L465-92L440-13L510-7Q582-1 604 18Q626 37 630 96Q632 120 640 232.50Q648 345 655 440.50Q662 536 662 555L446 555Q440 445 425 366Q410 287 388 225Q366 163 323 107Q280 51 230.50 4.50Q181-42 99-108L41-49Q219 79 284 200.50Q349 322 369 555L89 555L89 628L374 628L380 804L457 798L449 628M241 439Q187 290 100 141L27 181Q112 305 167 462L241 439M795 439Q828 399 877 319.50Q926 240 952 188L885 139Q862 195 815 276Q768 357 733 402L795 439Z"  horiz-adv-x="984" vert-adv-y="1000"  />

    
    <glyph glyph-name="uni529F" unicode="&#x529F;" d="M604 604L872 604Q867 405 854 81Q850-9 817.50-37Q785-65 684-74L618-80L592-3L676 4Q741 9 757.50 26Q774 43 778 112Q790 337 793 529L602 529Q598 393 588 311.50Q578 230 549 155.50Q520 81 475.50 25.50Q431-30 351-108L286-61Q340-11 375.50 27Q411 65 437.50 109Q464 153 478.50 187Q493 221 503 279.50Q513 338 517 387.50Q521 437 526 529L412 529L412 604L529 604Q530 640 532 715Q534 790 534 803L609 800Q609 794 607 717.50Q605 641 604 604M429 197L433 159Q363 135 244 103Q125 71 57 58L32 134Q95 144 202 171L202 613L68 613L68 684L402 684L402 613L276 613L276 191Q375 219 423 237L429 197Z"  horiz-adv-x="984" vert-adv-y="1000"  />

    
    <glyph glyph-name="uni52A0" unicode="&#x52A0;" d="M273 802Q273 731 270 635L476 635Q463 76 463 47Q463-11 442.50-37Q422-63 364-69L283-77L258 2L346 10Q369 12 378 26.50Q387 41 387 70Q388 89 390.50 201Q393 313 396 433.50Q399 554 399 561L268 561L268 560Q259 312 220.50 175Q182 38 92-96L23-59Q110 61 147.50 190Q185 319 194 556L194 561L74 561L74 635L196 635Q198 765 198 806L273 802M558 689L884 689L884-82L809-82L809 1L632 1L632-82L558-82L558 689M632 74L809 74L809 615L632 615L632 74Z"  horiz-adv-x="984" vert-adv-y="1000"  />

    
    <glyph glyph-name="uni52A1" unicode="&#x52A1;" d="M564 473Q705 411 947 372L920 301Q756 337 660 364.50Q564 392 488 430Q316 342 63 285L30 353Q257 400 414 472Q338 523 264 601Q200 538 118 478L72 524Q152 583 228 664.50Q304 746 347 816L415 788Q389 746 366 717L797 717L797 656Q676 542 564 473M313 653Q398 563 489 511Q592 568 686 655L315 655L313 653M465 350Q456 286 453 264L805 264Q795 153 777 37Q767-28 744-49.50Q721-71 663-76L555-86L532-19L637-10Q668-7 682.50 8.50Q697 24 704 62Q713 111 722 199L441 199Q413 81 335.50 11.50Q258-58 98-108L61-45Q200-4 268.50 51.50Q337 107 362 199L137 199L137 264L375 264Q383 317 386 357L465 350Z"  horiz-adv-x="984" vert-adv-y="1000"  />

    
    <glyph glyph-name="uni52A8" unicode="&#x52A8;" d="M660 613L888 613Q877 223 869 58Q867-13 837.50-37Q808-61 720-72L662-79L639-1L704 5Q761 10 779 26Q797 42 799 94Q809 314 816 540L658 540Q654 421 649 353.50Q644 286 633.50 215Q623 144 602.50 95.50Q582 47 551-4.50Q520-56 470-116L406-71Q454-17 484 29Q514 75 533.50 119.50Q553 164 563 230Q573 296 577.50 360.50Q582 425 585 540L458 540L458 613L586 613L590 803L663 799Q662 698 660 613M461 725L461 654L107 654L107 725L461 725M421-2Q415 22 406 52Q381 48 318 39Q255 30 211.50 24Q168 18 154 16Q129 13 91 0L63 76Q90 87 107 120Q165 239 214 405L56 405L56 477L492 477L492 405L291 405Q268 327 233.50 233Q199 139 175 94Q193 97 274 107.50Q355 118 382 122Q340 236 308 297L375 323Q404 265 438.50 178.50Q473 92 486 40L421-2Z"  horiz-adv-x="984" vert-adv-y="1000"  />

    
    <glyph glyph-name="uni53" unicode="&#x53;" d="M263-10Q134-10 57 17L57 100Q142 69 263 69Q343 69 382 96Q421 123 421 186Q421 249 390.50 275Q360 301 261 325Q150 352 108.50 390Q67 428 67 517Q67 705 298 705Q409 705 472 680L472 598Q397 626 299 626Q222 626 189 603.50Q156 581 156 517Q156 466 181.50 443.50Q207 421 298 400Q419 372 464 329Q509 286 509 187Q509-10 263-10Z"  horiz-adv-x="566" vert-adv-y="1000"  />

    
    <glyph glyph-name="uni5305" unicode="&#x5305;" d="M847 138L924 109Q914 35 898-18Q889-50 857-64Q825-78 749-81Q551-89 314-81Q233-78 201-51Q169-24 169 56L169 490Q127 440 88 401L22 456Q191 613 268 807L352 790Q336 752 311 703L822 703Q814 276 812 241Q808 164 775 136Q742 108 644 97L589 91L566 166L639 171Q700 175 716 191.50Q732 208 736 265Q737 278 739 360Q741 442 743 532Q745 622 745 632L270 632Q232 569 185 510L571 510L571 201L243 201L243 74Q243 23 260 8.50Q277-6 332-8Q536-15 739-8Q785-7 805 3Q825 13 830 36Q841 77 847 138M499 439L243 439L243 275L499 275L499 439Z"  horiz-adv-x="984" vert-adv-y="1000"  />

    
    <glyph glyph-name="uni5316" unicode="&#x5316;" d="M375 774Q336 660 275 550L275-95L197-95L197 425Q145 350 77 273L27 329Q214 546 301 798L375 774M853 205L927 180Q925 110 913 50Q900-14 873.50-37Q847-60 774-63Q700-66 626-63Q549-60 519.50-33.50Q490-7 490 67L490 240Q408 184 333 142L293 208Q394 266 490 336L490 798L569 793L569 396Q717 516 846 667L903 611Q741 427 569 297L569 85Q569 43 585 29Q601 15 645 13Q702 10 760 13Q805 15 819 27Q833 39 841 78Q849 118 853 205Z"  horiz-adv-x="984" vert-adv-y="1000"  />

    
    <glyph glyph-name="uni5317" unicode="&#x5317;" d="M862 180L933 158Q931 78 921 16Q916-17 903-34.50Q890-52 876-57Q862-62 832-66Q809-69 746-69.50Q683-70 638-66Q589-61 570-39.50Q551-18 551 29L549 801L631 798L631 483Q768 553 868 641L915 572Q812 487 632 397L631 399L631 54Q631 13 670 8Q696 4 743 4.50Q790 5 815 10Q836 14 843 22Q850 30 853 51Q860 100 862 180M328 549L328 797L405 794L404-95L327-95L327 111Q218 49 71-6L37 70Q108 91 194.50 129.50Q281 168 327 197L328 475L84 475L84 549L328 549Z"  horiz-adv-x="984" vert-adv-y="1000"  />

    
    <glyph glyph-name="uni533A" unicode="&#x533A;" d="M212 20L929 20L929-54L131-54L131 748L905 748L905 673L212 673L212 20M282 61L231 126Q379 220 515 351Q360 501 275 569L328 624Q429 540 570 406Q677 517 754 634L819 587Q734 467 625 353Q763 222 851 126L800 59Q707 162 570 298Q425 157 282 61Z"  horiz-adv-x="984" vert-adv-y="1000"  />

    
    <glyph glyph-name="uni533B" unicode="&#x533B;" d="M209 14L926 14L926-56L137-56L137 751L915 751L915 681L209 681L209 14M909 308L603 308Q601 293 593 265Q753 190 876 107L841 37Q707 135 564 205Q498 103 287 30L250 94Q382 136 445.50 185.50Q509 235 527 308L246 308L246 375L536 375L536 379Q536 388 536.50 410Q537 432 538 460.50Q539 489 539 503L403 503Q362 439 322 395L267 435Q311 484 351 549Q391 614 412 671L474 644Q458 604 440 568L854 568L854 503L612 503Q609 389 609 376L609 375L909 375L909 308Z"  horiz-adv-x="984" vert-adv-y="1000"  />

    
    <glyph glyph-name="uni5343" unicode="&#x5343;" d="M928 405L928 330L533 330L533-101L450-101L450 330L52 330L52 405L450 405L450 643Q254 625 128 619L115 694Q269 700 481.50 722.50Q694 745 823 769L839 693Q736 675 533 652L533 405L928 405Z"  horiz-adv-x="984" vert-adv-y="1000"  />

    
    <glyph glyph-name="uni5347" unicode="&#x5347;" d="M930 432L930 359L725 359L725-95L646-95L646 359L368 359Q365 246 341 170.50Q317 95 267 34.50Q217-26 121-99L59-38Q157 34 202.50 84.50Q248 135 267 196Q286 257 288 359L60 359L60 432L288 432L288 644Q179 626 110 620L93 688Q344 713 550 771L567 703Q472 678 369 658L369 432L646 432L646 798L725 795L725 432L930 432Z"  horiz-adv-x="984" vert-adv-y="1000"  />

    
    <glyph glyph-name="uni534E" unicode="&#x534E;" d="M217 554Q163 495 79 423L33 475Q213 632 313 808L374 781Q332 704 290 645L290 280L217 280L217 554M302 495Q425 532 503 564L503 799L581 796L581 597Q718 659 844 744L879 681Q743 587 581 516L581 443Q581 406 595 392.50Q609 379 645 376Q700 372 756 376Q794 379 810 388Q826 397 831 418Q838 446 842 503L913 477Q911 430 892 365Q885 338 858 325Q831 312 770 308Q691 303 613 308Q555 311 529 334.50Q503 358 503 420L503 484Q424 454 335 426L302 495M928 187L928 113L531 113L531-104L453-104L453 113L58 113L58 187L453 187L453 300L531 297L531 187L928 187Z"  horiz-adv-x="984" vert-adv-y="1000"  />

    
    <glyph glyph-name="uni534F" unicode="&#x534F;" d="M965 219L902 174Q879 253 805 402Q801 339 796.50 256.50Q792 174 789 120Q786 66 785 55Q781-23 756-46.50Q731-70 655-78L595-84L570-8L631-3Q682 1 695.50 16Q709 31 713 84Q714 108 727 329Q740 550 740 553L578 553L578 542Q570 297 522.50 166Q475 35 343-103L280-60Q405 66 449 191.50Q493 317 505 546L505 553L343 553L343 625L508 625L512 807L584 804L580 625L816 625Q816 606 805 419L858 446Q942 287 965 219M327 469L221 469L221-96L149-96L149 469L52 469L52 541L149 541L149 805L221 802L221 541L327 541L327 469M442 438Q401 299 338 166L271 192Q338 316 377 459L442 438Z"  horiz-adv-x="984" vert-adv-y="1000"  />

    
    <glyph glyph-name="uni5355" unicode="&#x5355;" d="M922 142L922 70L529 70L529-108L455-108L455 70L62 70L62 142L455 142L455 250L165 250L165 670L327 670Q294 736 257 783L317 817Q367 755 401 690L372 670L565 670Q626 745 661 818L728 789Q702 738 654 670L819 670L819 250L529 250L529 142L922 142M455 605L239 605L239 495L455 495L455 605M743 495L743 605L529 605L529 495L743 495M239 320L455 320L455 430L239 430L239 320M529 320L743 320L743 430L529 430L529 320Z"  horiz-adv-x="984" vert-adv-y="1000"  />

    
    <glyph glyph-name="uni5356" unicode="&#x5356;" d="M730 360Q778 428 808 488L93 488L93 551L456 551L456 652L137 652L137 715L456 715L456 805L530 801L530 715L860 715L860 652L530 652L530 551L884 551L884 488Q845 411 795 336L730 360M479 380L451 318Q361 364 233 413L257 470Q323 445 479 380M927 133L583 133Q575 117 571 110Q825 16 907-28L880-97Q758-30 527 54Q473 3 373.50-32Q274-67 102-97L75-29Q268 3 363.50 39Q459 75 497 133L53 133L53 196L525 196Q538 244 541 334L545 459L621 454L617 324Q614 246 603 196L927 196L927 133M165 299L192 356Q327 310 419 268L394 209Q280 259 165 299Z"  horiz-adv-x="984" vert-adv-y="1000"  />

    
    <glyph glyph-name="uni535A" unicode="&#x535A;" d="M576 571L576 640L322 640L322 699L576 699L576 801L641 798L641 699L780 699Q744 742 705 777L750 816Q807 767 849 716L833 699L922 699L922 640L641 640L641 571L865 571L865 218L796 218L796 272L641 272L641 225L576 225L576 272L419 272L419 218L352 218L352 571L576 571M324 486L224 486L224-100L157-100L157 486L52 486L52 560L157 560L157 799L224 796L224 560L324 560L324 486M576 516L419 516L419 450L576 450L576 516M796 516L641 516L641 450L796 450L796 516M419 328L576 328L576 396L419 396L419 328M641 328L796 328L796 396L641 396L641 328M941 178L941 117L793 117L793 18Q793-46 766.50-68.50Q740-91 656-95L600-98L577-31L646-27Q697-24 711.50-11.50Q726 1 726 39L726 117L433 117Q514 61 564 15L522-47Q479 5 385 70L420 117L276 117L276 178L726 178L726 239L793 236L793 178L941 178Z"  horiz-adv-x="984" vert-adv-y="1000"  />

    
    <glyph glyph-name="uni5370" unicode="&#x5370;" d="M470 721Q338 667 202 638L202 449L459 449L459 374L202 374L202 110Q302 137 459 186L464 107Q320 67 192 26Q147 9 128 1L98 69Q127 89 127 113L127 699Q280 728 447 792L470 721M515 725L880 725L880 157Q880 90 855 69Q830 48 759 40L700 33L675 106L740 112Q784 117 793.50 131Q803 145 803 187L803 649L591 649L591-95L515-95L515 725Z"  horiz-adv-x="984" vert-adv-y="1000"  />

    
    <glyph glyph-name="uni5373" unicode="&#x5373;" d="M303 247L364 274Q394 232 436.50 157.50Q479 83 504 26L439-18Q423 20 392 86Q330 53 164-24Q141-34 115-50L77 12Q110 38 110 67L110 755L466 755L466 300L179 300L179 64Q198 68 258.50 95.50Q319 123 361 146Q322 220 303 247M552 734L877 734L877 167Q877 106 858 82.50Q839 59 777 52L714 45L687 119L768 127Q790 129 797 139.50Q804 150 804 178L804 659L624 659L624-94L552-94L552 734M396 689L179 689L179 563L396 563L396 689M179 366L396 366L396 499L179 499L179 366Z"  horiz-adv-x="984" vert-adv-y="1000"  />

    
    <glyph glyph-name="uni539F" unicode="&#x539F;" d="M854 230L638 230L638 23Q638-36 614-56Q590-76 520-83L460-89L435-18L491-12Q536-7 548 3.50Q560 14 560 51L560 230L330 230L330 586L511 586Q531 640 544 684L231 684L231 428Q231 233 204 124Q177 15 104-105L34-62Q103 48 129.50 148Q156 248 156 425L156 755L929 755L929 684L549 684L619 670Q612 646 593 586L854 586L854 230M785 524L401 524L401 439L785 439L785 524M401 377L401 292L785 292L785 377L401 377M415 188L471 146Q412 53 274-75L224-24Q354 85 415 188M750 187Q788 159 848.50 99.50Q909 40 950-9L899-62Q815 47 705 143L750 187Z"  horiz-adv-x="984" vert-adv-y="1000"  />

    
    <glyph glyph-name="uni53A6" unicode="&#x53A6;" d="M221 691L221 425Q221 240 191.50 123.50Q162 7 94-114L34-79Q99 34 125 139.50Q151 245 151 422L151 751L925 751L925 691L221 691M950-35L927-97Q721-62 594-13Q456-64 228-102L207-44Q372-22 514 21Q444 55 376 104Q325 64 232 11L205 62Q343 137 417 230L319 230L319 542L523 542Q531 561 540 593L249 593L249 644L915 644L915 593L610 593Q599 558 592 542L842 542L842 230L438 230L475 206Q466 193 455 180L843 180L843 130Q767 64 670 18Q792-17 950-35M774 493L387 493L387 448L774 448L774 493M774 364L774 407L387 407L387 364L774 364M387 322L387 279L774 279L774 322L387 322M426 130Q492 83 587 46Q695 86 751 130L426 130Z"  horiz-adv-x="984" vert-adv-y="1000"  />

    
    <glyph glyph-name="uni53BF" unicode="&#x53BF;" d="M437 182Q373 110 271 18Q295 19 466.50 24Q638 29 703 31Q643 90 589 131L636 181Q684 145 759 75Q834 5 874-42L824-105Q805-76 767-35Q371-43 215-53L135-62L116 9Q143 13 154.50 17.50Q166 22 179 32Q250 87 340 182L55 182L55 248L188 248L188 758L793 758L793 248L929 248L929 182L437 182M719 690L262 690L262 586L719 586L719 690M719 419L719 524L262 524L262 419L719 419M262 355L262 248L719 248L719 355L262 355Z"  horiz-adv-x="984" vert-adv-y="1000"  />

    
    <glyph glyph-name="uni53C8" unicode="&#x53C8;" d="M942-15L900-93Q632 15 492 132Q353 20 84-89L42-13Q298 87 431 189Q353 269 298 373.50Q243 478 194 628L264 653Q312 513 365.50 415.50Q419 318 494 242Q575 318 627.50 416.50Q680 515 726 663L114 663L114 741L808 741L808 663Q759 499 700.50 386.50Q642 274 555 188Q688 79 942-15Z"  horiz-adv-x="984" vert-adv-y="1000"  />

    
    <glyph glyph-name="uni53D1" unicode="&#x53D1;" d="M800 706L765 635Q737 661 684 694Q631 727 593 745L631 806Q734 757 800 706M936-35L901-108Q685-42 554 53Q445-20 208-103L174-33Q380 30 494 100Q399 186 344 299Q260 119 81-61L22-9Q146 114 224.50 245.50Q303 377 345 538L122 538L122 601Q149 691 168 785L243 769Q225 691 204 607L362 607Q382 697 392 800L469 793Q456 686 441 607L910 607L910 538L426 538Q406 461 391 415L801 415L801 345Q725 192 622 103Q744 22 936-35M406 344Q467 227 563 148Q660 226 717 344L406 344Z"  horiz-adv-x="984" vert-adv-y="1000"  />

    
    <glyph glyph-name="uni53D6" unicode="&#x53D6;" d="M542 99L451 81L451-101L380-101L380 68Q171 30 48 15L33 88Q94 94 139 101L139 686L76 686L76 757L516 757L516 686L451 686L451 155Q492 162 539 174L540 136L542 99M749 194Q823 86 957-22L905-80Q778 26 705 126Q636 27 511-80L459-26Q594 83 664 191Q573 346 542 614L609 624Q631 411 706 265Q771 397 809 637L530 637L530 711L881 711L881 637Q857 488 827 384Q797 280 749 194M380 686L210 686L210 544L380 544L380 686M210 477L210 339L380 339L380 477L210 477M210 112Q259 119 380 141L380 272L210 272L210 112Z"  horiz-adv-x="984" vert-adv-y="1000"  />

    
    <glyph glyph-name="uni53D7" unicode="&#x53D7;" d="M166 440L166 309L97 309L97 506L260 506Q233 570 186 636L244 669Q204 667 120 665L104 732Q593 742 846 778L861 709Q718 695 487 680Q536 607 566 534L521 506L688 506L648 529Q670 555 701 606Q732 657 749 694L812 669Q754 562 715 506L885 506L885 309L817 309L817 440L166 440M245 669Q303 589 329 531L290 506L500 506Q477 569 425 649L486 680Q332 672 245 669M943-24L914-92Q639-37 493 35Q345-38 83-95L49-25Q282 19 416 77Q314 141 233 240L263 264L203 264L203 330L771 330L771 264Q684 148 567 76Q710 15 943-24M304 264Q384 172 490 113Q592 171 668 264L304 264Z"  horiz-adv-x="984" vert-adv-y="1000"  />

    
    <glyph glyph-name="uni53D8" unicode="&#x53D8;" d="M360 371L360 625L81 625L81 692L464 692Q449 743 429 796L503 810Q515 782 544 692L904 692L904 625L625 625L625 371L555 371L555 625L430 625L430 371L360 371M669 533L714 581Q757 551 824 493.50Q891 436 925 399L880 338Q847 380 780.50 440.50Q714 501 669 533M319 535Q236 434 98 329L50 383Q110 424 169.50 477Q229 530 270 577L319 535M942-36L908-108Q614-42 489 18Q345-51 70-111L40-41Q268 0 411 62Q322 122 247 227L306 262L160 262L160 330L774 330L774 264Q684 134 566 60Q688 11 942-36M313 262Q396 152 487 99Q599 163 675 262L313 262Z"  horiz-adv-x="984" vert-adv-y="1000"  />

    
    <glyph glyph-name="uni53E3" unicode="&#x53E3;" d="M149 707L834 707L834-80L755-80L755 9L228 9L228-85L149-85L149 707M228 87L755 87L755 629L228 629L228 87Z"  horiz-adv-x="984" vert-adv-y="1000"  />

    
    <glyph glyph-name="uni53E4" unicode="&#x53E4;" d="M920 563L531 563L531 370L791 370L791-109L716-109L716-38L267-38L267-109L192-109L192 370L453 370L453 563L64 563L64 636L453 636L453 797L531 794L531 636L920 636L920 563M716 37L716 294L267 294L267 37L716 37Z"  horiz-adv-x="984" vert-adv-y="1000"  />

    
    <glyph glyph-name="uni53E6" unicode="&#x53E6;" d="M434 319L841 319Q832 172 820 54Q812-19 773.50-47.50Q735-76 626-81L543-85L520-12L625-7Q701-3 722.50 14.50Q744 32 751 86Q758 137 763 247L425 247Q405 129 333.50 50.50Q262-28 93-108L48-42Q202 28 264 90Q326 152 346 247L72 247L72 319L357 319Q358 321 358 325Q365 388 365 430L171 430L171 757L812 757L812 430L441 430Q439 389 434 324L434 319M244 685L244 501L739 501L739 685L244 685Z"  horiz-adv-x="984" vert-adv-y="1000"  />

    
    <glyph glyph-name="uni53EF" unicode="&#x53EF;" d="M931 741L931 671L801 671L801 33Q801-32 781.50-51.50Q762-71 697-77L602-86L576-12L672-4Q710-1 718 9Q726 19 726 59L726 671L77 671L77 741L931 741M180 119L180 527L549 527L549 119L180 119M252 456L252 190L477 190L477 456L252 456Z"  horiz-adv-x="984" vert-adv-y="1000"  />

    
    <glyph glyph-name="uni53F7" unicode="&#x53F7;" d="M791 754L791 497L188 497L188 754L791 754M716 561L716 690L264 690L264 561L716 561M930 342L319 342L299 238L779 238Q768 87 765 58Q757-29 716-55.50Q675-82 541-90L454-95L430-19L538-15Q629-11 653.50 4.50Q678 20 683 75Q692 138 693 171L201 171L235 342L51 342L51 408L930 408L930 342Z"  horiz-adv-x="984" vert-adv-y="1000"  />

    
    <glyph glyph-name="uni53F8" unicode="&#x53F8;" d="M864 36Q864-28 836-52Q808-76 732-82L625-91L600-14L700-8Q753-5 767.50 8Q782 21 782 67L782 676L139 676L139 750L864 750L864 36M75 559L726 559L726 489L75 489L75 559M170 38L170 375L620 375L620 38L170 38M249 110L541 110L541 303L249 303L249 110Z"  horiz-adv-x="984" vert-adv-y="1000"  />

    
    <glyph glyph-name="uni54" unicode="&#x54;" d="M511 694L511 614L309 614L309 0L219 0L219 614L16 614L16 694L511 694Z"  horiz-adv-x="528" vert-adv-y="1000"  />

    
    <glyph glyph-name="uni5404" unicode="&#x5404;" d="M570 465Q714 404 941 368L907 295Q649 345 491 423Q315 338 69 282L34 352Q246 391 416 465Q333 517 256 590Q195 532 121 478L73 530Q155 585 231 663Q307 741 353 813L426 789Q405 757 379 724L807 724L807 657Q706 544 570 465M308 641Q388 560 493 502Q628 573 708 657L322 657Q314 647 308 641M194-100L194 279L785 279L785-100L711-100L711-41L268-41L268-100L194-100M711 210L268 210L268 28L711 28L711 210Z"  horiz-adv-x="984" vert-adv-y="1000"  />

    
    <glyph glyph-name="uni5408" unicode="&#x5408;" d="M527 793Q655 604 957 465L916 390Q640 523 490 720Q355 535 64 391L23 466Q324 603 454 793L527 793M252 488L729 488L729 418L252 418L252 488M185-92L185 291L798 291L798-92L721-92L721-40L262-40L262-92L185-92M721 224L262 224L262 30L721 30L721 224Z"  horiz-adv-x="984" vert-adv-y="1000"  />

    
    <glyph glyph-name="uni540C" unicode="&#x540C;" d="M862 37Q862-34 833.50-58.50Q805-83 720-88L664-91L637-19L707-15Q758-13 772 0.50Q786 14 786 56L786 675L182 675L182-89L110-89L110 745L862 745L862 37M245 557L728 557L728 490L245 490L245 557M303 381L668 381L668 70L303 70L303 381M371 316L371 134L600 134L600 316L371 316Z"  horiz-adv-x="984" vert-adv-y="1000"  />

    
    <glyph glyph-name="uni540D" unicode="&#x540D;" d="M428 314L845 314L845-91L771-91L771-34L321-34L321-91L247-91L247 236Q152 201 61 174L25 242Q518 380 744 630L378 630L325 577Q407 519 466 466L415 405Q373 456 269 529Q202 474 137 432L91 494Q188 554 283 643.50Q378 733 436 814L504 784Q476 742 441 700L843 700L843 630Q687 441 428 314M321 34L771 34L771 243L321 243L321 34Z"  horiz-adv-x="984" vert-adv-y="1000"  />

    
    <glyph glyph-name="uni540E" unicode="&#x540E;" d="M244 516L920 516L920 447L244 447Q243 274 209.50 165Q176 56 88-77L26-45Q112 78 142 184.50Q172 291 172 475L172 723Q537 728 826 777L845 703Q572 661 244 652L244 516M309-96L309 307L830 307L830-96L756-96L756-30L383-30L383-96L309-96M756 239L383 239L383 38L756 38L756 239Z"  horiz-adv-x="984" vert-adv-y="1000"  />

    
    <glyph glyph-name="uni5411" unicode="&#x5411;" d="M463 679L858 679L858 32Q858-30 829.50-52Q801-74 715-78L659-82L633-7L704-3Q756 0 768.50 11.50Q781 23 781 60L781 606L187 606L187-79L113-79L113 679L369 679Q409 766 424 824L516 814Q499 754 463 679M663 468L663 108L307 108L307 468L663 468M592 181L592 395L381 395L381 181L592 181Z"  horiz-adv-x="984" vert-adv-y="1000"  />

    
    <glyph glyph-name="uni5417" unicode="&#x5417;" d="M792 380L893 380Q883 166 874 64Q866-24 830.50-52.50Q795-81 688-87L617-91L591-18L683-14Q751-11 773 6.50Q795 24 800 80Q807 131 814 308L448 308L480 630L552 624L527 380L716 380L744 675L425 675L425 747L827 747L792 380M99 56L99 712L352 712L352 56L99 56M167 638L167 129L284 129L284 638L167 638M759 189L759 118L386 118L386 189L759 189Z"  horiz-adv-x="984" vert-adv-y="1000"  />

    
    <glyph glyph-name="uni543E" unicode="&#x543E;" d="M764 385L929 385L929 319L52 319L52 385L265 385L294 515L126 515L126 580L308 580L331 683L97 683L97 749L880 749L880 683L406 683L384 580L771 580L764 385M370 515L341 385L686 385L692 515L370 515M179-102L179 232L807 232L807-102L730-102L730-49L254-49L254-102L179-102M730 165L254 165L254 19L730 19L730 165Z"  horiz-adv-x="984" vert-adv-y="1000"  />

    
    <glyph glyph-name="uni544A" unicode="&#x544A;" d="M547 446L930 446L930 374L63 374L63 446L473 446L473 590L242 590Q201 519 166 469L101 508Q200 632 250 778L323 761Q307 719 280 661L473 661L473 797L547 794L547 661L863 661L863 590L547 590L547 446M183-107L183 265L808 265L808-107L733-107L733-57L257-57L257-107L183-107M733 189L257 189L257 18L733 18L733 189Z"  horiz-adv-x="984" vert-adv-y="1000"  />

    
    <glyph glyph-name="uni5468" unicode="&#x5468;" d="M152 758L865 758L865 38Q865-31 838-54Q811-77 734-82L678-86L654-20L715-16Q765-13 778.50-2Q792 9 792 50L792 690L224 690L224 395Q224 207 201 113Q178 19 112-98L42-64Q108 46 130 137Q152 228 152 423L152 758M258 416L469 416L469 518L291 518L291 578L469 578L469 664L540 661L540 578L717 578L717 518L540 518L540 416L750 416L750 355L258 355L258 416M684 280L684 31L322 31L322 280L684 280M616 96L616 214L391 214L391 96L616 96Z"  horiz-adv-x="984" vert-adv-y="1000"  />

    
    <glyph glyph-name="uni548C" unicode="&#x548C;" d="M335 382Q365 357 412.50 307Q460 257 486 224L436 162Q391 232 305 318L305-104L235-104L235 335Q165 202 74 91L27 148Q147 280 229 458L62 458L62 531L235 531L235 664Q135 648 83 643L68 712Q149 719 258.50 739.50Q368 760 442 781L456 712Q401 696 305 677L305 531L475 531L475 458L305 458L305 353L335 382M514 705L878 705L878-70L805-70L805 7L587 7L587-76L514-76L514 705M587 86L805 86L805 628L587 628L587 86Z"  horiz-adv-x="984" vert-adv-y="1000"  />

    
    <glyph glyph-name="uni54A8" unicode="&#x54A8;" d="M434 641Q390 569 338 509L285 554Q384 665 441 812L513 801Q496 758 471 709L875 709L875 643Q827 566 785 508L725 535Q733 546 765 591.50Q797 637 800 641L434 641M225 586Q202 620 156.50 667.50Q111 715 78 743L130 794Q160 770 205.50 723.50Q251 677 274 647L225 586M606 542Q641 471 719.50 424Q798 377 931 342L898 273Q769 314 694.50 358.50Q620 403 579 467Q545 407 472.50 361.50Q400 316 274 273L237 338Q391 384 458 437Q525 490 535 568L540 614L614 611Q611 584 610 566Q608 550 606 542M237 549L295 503Q212 375 102 268L47 321Q162 429 237 549M174-100L174 256L810 256L810-100L732-100L732-46L251-46L251-100L174-100M732 185L251 185L251 24L732 24L732 185Z"  horiz-adv-x="984" vert-adv-y="1000"  />

    
    <glyph glyph-name="uni54C1" unicode="&#x54C1;" d="M767 764L767 442L207 442L207 764L767 764M694 512L694 696L279 696L279 512L694 512M100-77L100 340L444 340L444-77L372-77L372-21L172-21L172-77L100-77M534 340L881 340L881-77L808-77L808-21L606-21L606-77L534-77L534 340M372 272L172 272L172 48L372 48L372 272M606 48L808 48L808 272L606 272L606 48Z"  horiz-adv-x="984" vert-adv-y="1000"  />

    
    <glyph glyph-name="uni55" unicode="&#x55;" d="M548 46.50Q548 46.50 515.50 18.25Q483-10 350-10Q217-10 153 45Q89 100 89 224L89 694L178 694L178 244Q178 146 216 107.50Q254 69 351 69Q451 69 487.50 106.50Q524 144 524 244L524 694L613 694L613 224Q613 103 548 46.50Z"  horiz-adv-x="701" vert-adv-y="1000"  />

    
    <glyph glyph-name="uni5546" unicode="&#x5546;" d="M935 637L703 637Q695 611 679.50 563.50Q664 516 663 514L856 514L856 15Q854-43 835.50-60.50Q817-78 749-84L680-90L658-23L738-16Q769-13 777-3.50Q785 6 786 41L786 448L198 448L198-87L129-87L129 514L320 514Q299 591 283 637L55 637L55 705L468 705Q454 750 438 793L512 807Q523 781 548 705L935 705L935 637M590 514Q618 587 632 637L356 637Q382 555 392 514L590 514M666 17L321 17L321 273Q301 255 263 226L215 274Q310 341 381 429L432 385Q392 333 326 277L666 277L666 17M723 223Q695 256 640.50 306Q586 356 553 382L598 426Q724 322 765 277L723 223M390 211L390 81L598 81L598 211L390 211Z"  horiz-adv-x="984" vert-adv-y="1000"  />

    
    <glyph glyph-name="uni55B7" unicode="&#x55B7;" d="M591 543L591 645L390 645L390 707L591 707L591 804L657 802L657 707L882 707L882 645L657 645L657 543L591 543M316 694L316 50L94 50L94 694L316 694M253 119L253 626L158 626L158 119L253 119M443 375L443 449L350 449L350 512L443 512L443 589L506 587L506 512L742 512L742 589L805 587L805 512L925 512L925 449L805 449L805 377L742 377L742 449L506 449L506 375L443 375M846 82L780 82L780 281L468 281L468 82L403 82L403 342L846 342L846 82M659 244Q659 211 654 184Q641 76 575.50 21.50Q510-33 328-92L290-29Q405 0 469 33.50Q533 67 557 101.50Q581 136 590 191Q593 206 593 246L659 244M662 113Q722 87 800.50 43.50Q879 0 932-37L899-103Q803-19 633 58L662 113Z"  horiz-adv-x="984" vert-adv-y="1000"  />

    
    <glyph glyph-name="uni56" unicode="&#x56;" d="M251 0L16 694L112 694L307 95L313 95L511 694L602 694L363 0L251 0Z"  horiz-adv-x="617" vert-adv-y="1000"  />

    
    <glyph glyph-name="uni56DE" unicode="&#x56DE;" d="M108 752L866 752L866-90L788-90L788-26L185-26L185-90L108-90L108 752M185 49L788 49L788 675L185 675L185 49M308 540L662 540L662 184L308 184L308 540M594 252L594 472L377 472L377 252L594 252Z"  horiz-adv-x="984" vert-adv-y="1000"  />

    
    <glyph glyph-name="uni56E0" unicode="&#x56E0;" d="M116 755L869 755L869-99L793-99L793-41L192-41L192-99L116-99L116 755M192 31L793 31L793 680L192 680L192 31M509 371Q564 327 636 257Q708 187 744 140L696 80Q632 174 486 299Q435 189 272 86L222 144Q332 209 385 272Q438 335 447 426Q447 431 448 434L241 434L241 506L452 506Q458 611 456 648L529 645Q529 593 524 506L742 506L742 434L518 434Q517 427 515.50 416Q514 405 514 401Q513 391 509 371Z"  horiz-adv-x="984" vert-adv-y="1000"  />

    
    <glyph glyph-name="uni56F4" unicode="&#x56F4;" d="M115 756L870 756L870-103L797-103L797-50L189-50L189-103L115-103L115 756M189 17L797 17L797 686L189 686L189 17M741 526L492 526L492 445L717 445L717 388L492 388L492 307L722 307Q718 216 712 176Q709 128 684.50 108Q660 88 597 84L556 80L535 141L585 143Q622 146 635 154Q648 162 650 184Q656 211 656 248L492 248L492 45L422 45L422 248L231 248L231 307L422 307L422 388L265 388L265 445L422 445L422 526L238 526L238 586L422 586L422 665L492 663L492 586L741 586L741 526Z"  horiz-adv-x="984" vert-adv-y="1000"  />

    
    <glyph glyph-name="uni56FD" unicode="&#x56FD;" d="M804-44L182-44L182-100L108-100L108 757L878 757L878-100L804-100L804-44M182 690L182 25L804 25L804 690L182 690M226 174L451 174L451 347L260 347L260 411L451 411L451 535L243 535L243 599L740 599L740 535L524 535L524 411L726 411L726 347L524 347L524 174L757 174L757 109L226 109L226 174M630 339Q682 277 711 222L661 185Q625 253 581 308L630 339Z"  horiz-adv-x="984" vert-adv-y="1000"  />

    
    <glyph glyph-name="uni57" unicode="&#x57;" d="M188 0L26 694L120 694L250 105L256 105L397 613L505 613L646 105L652 105L781 694L872 694L707 0L593 0L452 514L446 514L302 0L188 0Z"  horiz-adv-x="898" vert-adv-y="1000"  />

    
    <glyph glyph-name="uni571F" unicode="&#x571F;" d="M534 32L924 32L924-42L60-42L60 32L453 32L453 432L121 432L121 505L453 505L453 802L534 799L534 505L863 505L863 432L534 432L534 32Z"  horiz-adv-x="984" vert-adv-y="1000"  />

    
    <glyph glyph-name="uni5728" unicode="&#x5728;" d="M392 613Q340 496 267 397L267-97L193-97L193 304Q140 244 72 182L20 241Q202 391 310 613L59 613L59 685L343 685Q371 751 390 818L462 800Q445 742 423 685L909 685L909 613L392 613M639 42L918 42L918-29L299-29L299 42L564 42L564 301L341 301L341 373L564 373L564 541L639 538L639 373L872 373L872 301L639 301L639 42Z"  horiz-adv-x="984" vert-adv-y="1000"  />

    
    <glyph glyph-name="uni5730" unicode="&#x5730;" d="M867 144L937 120Q936 68 919-9Q912-40 883-55Q854-70 787-73Q660-79 533-73Q459-70 431-45Q403-20 403 52L403 400L316 370L299 440L403 475L403 713L474 708L474 499L592 538L592 800L664 795L664 562L872 632L859 281Q857 225 836.50 204.50Q816 184 757 178L717 174L693 246L735 250Q767 253 777 265Q787 277 788 315Q789 325 791 374Q793 423 795 476.50Q797 530 797 535L664 489L664 92L592 92L592 465L474 424L474 83Q474 31 486 16.50Q498 2 544-1Q651-7 758-1Q810 2 829 10Q848 18 854 41Q865 87 867 144M360 169L366 130L371 99Q314 73 215.50 34.50Q117-4 60-22L33 47Q77 59 173 94L173 457L61 457L61 527L173 527L173 780L242 777L242 527L347 527L347 457L242 457L242 120Q293 140 360 169Z"  horiz-adv-x="984" vert-adv-y="1000"  />

    
    <glyph glyph-name="uni5740" unicode="&#x5740;" d="M706 29L938 29L938-43L279-43L279 29L415 29L415 620L492 617L492 29L627 29L627 806L706 803L706 511L896 511L896 436L706 436L706 29M359 150L364 113Q305 89 54 6L35 80Q59 87 177 124L177 474L65 474L65 553L177 553L177 799L251 796L251 553L365 553L365 474L251 474L251 149Q327 175 354 186L359 150Z"  horiz-adv-x="984" vert-adv-y="1000"  />

    
    <glyph glyph-name="uni57F9" unicode="&#x57F9;" d="M767 427L940 427L940 358L327 358L327 427L493 427Q481 528 464 617L361 617L361 686L603 686Q581 763 569 793L642 806Q663 742 677 686L899 686L899 617L809 617Q786 499 767 427M351 184L357 146L362 111Q303 88 205 58.50Q107 29 52 17L35 89Q72 96 173 125L173 470L55 470L55 540L173 540L173 793L245 791L245 540L353 540L353 470L245 470L245 147Q313 169 351 184M532 617Q552 503 563 427L697 427Q719 507 739 617L532 617M398-102L398 256L853 256L853-102L779-102L779-49L470-49L470-102L398-102M779 188L470 188L470 19L779 19L779 188Z"  horiz-adv-x="984" vert-adv-y="1000"  />

    
    <glyph glyph-name="uni58" unicode="&#x58;" d="M23 0L251 353L42 694L147 694L312 409L318 409L494 694L592 694L375 359L600 0L495 0L317 298L311 298L124 0L23 0Z"  horiz-adv-x="624" vert-adv-y="1000"  />

    
    <glyph glyph-name="uni5854" unicode="&#x5854;" d="M427 556L427 642L319 642L319 708L427 708L427 811L497 809L497 708L705 708L705 811L776 809L776 708L913 708L913 642L776 642L776 556L705 556L705 642L497 642L497 556L427 556M334 200L339 164L344 127Q152 48 50 23L31 97Q83 110 162 138L162 484L53 484L53 556L162 556L162 809L232 807L232 556L338 556L338 484L232 484L232 162Q253 170 288 183Q323 196 334 200M642 588Q740 450 952 361L918 300Q702 402 605 531Q546 451 437 376L778 376L778 313L429 313L429 371Q379 336 311 301L273 360Q364 400 444 462.50Q524 525 565 588L642 588M382-88L382 230L828 230L828-89L756-89L756-36L454-36L454-88L382-88M756 167L454 167L454 25L756 25L756 167Z"  horiz-adv-x="984" vert-adv-y="1000"  />

    
    <glyph glyph-name="uni5883" unicode="&#x5883;" d="M928 562L928 505L333 505L333 562L480 562Q474 606 460 666L347 666L347 722L582 722Q569 763 549 808L622 821Q640 779 657 722L898 722L898 666L775 666Q757 590 749 562L928 562M337 153L342 120Q192 61 53 28L39 96Q95 111 164 132L164 479L62 479L62 550L164 550L164 808L232 806L232 550L318 550L318 479L232 479L232 154Q282 170 332 189L337 153M524 666Q534 615 542 562L682 562Q698 609 711 666L524 666M886 106L947 84Q944 29 933-22Q927-50 907.50-61Q888-72 833-76Q788-79 743-76Q696-73 676-55Q656-37 656 10L656 147L548 147Q548 144 547.50 139.50Q547 135 547 134Q542 41 480-11.50Q418-64 282-109L250-48Q370-14 421.50 28.50Q473 71 478 133Q478 134 478.50 139Q479 144 479 147L372 147L372 440L846 440L846 147L722 147L722 33Q722 4 731.50-5.50Q741-15 769-17Q794-18 819-17Q852-15 863-7.50Q874 0 878 20Q886 65 886 106M781 383L438 383L438 321L781 321L781 383M438 266L438 203L781 203L781 266L438 266Z"  horiz-adv-x="984" vert-adv-y="1000"  />

    
    <glyph glyph-name="uni58A8" unicode="&#x58A8;" d="M922 334L922 279L60 279L60 334L458 334L458 392L118 392L118 444L458 444L458 504L139 504L139 759L844 759L844 504L527 504L527 444L865 444L865 392L527 392L527 334L922 334M358 555L458 555L458 703L211 703L211 555L356 555Q341 578 310 610Q279 642 257 659L297 694Q352 651 397 596L358 555M773 555L773 703L527 703L527 555L619 555L581 592Q625 625 683 695L728 659Q712 638 680.50 606Q649 574 626 555L773 555M65 141Q112 181 177 277L231 245Q211 210 176 164Q141 118 115 94L65 141M600 132Q582 191 544 248L601 275Q642 213 661 169L600 132M753 236L797 274Q822 253 861.50 211Q901 169 921 141L875 89Q856 120 817.50 166Q779 212 753 236M364 133Q354 193 328 256L391 269Q419 209 432 158L364 133M529-11L928-11L928-68L56-68L56-11L455-11L455 65L149 65L149 119L455 119L455 200L529 198L529 119L833 119L833 65L529 65L529-11Z"  horiz-adv-x="984" vert-adv-y="1000"  />

    
    <glyph glyph-name="uni58EB" unicode="&#x58EB;" d="M931 440L534 440L534 29L860 29L860-45L123-45L123 29L450 29L450 440L53 440L53 515L450 515L450 796L534 791L534 515L931 515L931 440Z"  horiz-adv-x="984" vert-adv-y="1000"  />

    
    <glyph glyph-name="uni5907" unicode="&#x5907;" d="M568 483Q709 428 949 396L923 324Q630 373 483 442Q300 362 56 319L32 385Q244 420 405 485Q334 532 266 600Q190 529 112 477L60 533Q155 589 231.50 666.50Q308 744 351 814L431 793Q407 756 380 722L810 722L810 649Q694 550 568 483M315 649Q398 568 486 521Q600 576 699 655L321 655L315 649M172-113L172 326L801 326L801-113L725-113L725-61L247-61L247-113L172-113M454 259L247 259L247 164L454 164L454 259M725 164L725 259L527 259L527 164L725 164M247 6L454 6L454 101L247 101L247 6M527 6L725 6L725 101L527 101L527 6Z"  horiz-adv-x="984" vert-adv-y="1000"  />

    
    <glyph glyph-name="uni590D" unicode="&#x590D;" d="M939-27L916-94Q672-57 518-4Q362-57 86-103L59-42Q272-12 425 32Q328 75 249 135Q184 80 91 29L49 79Q212 165 305 286L186 286L186 569Q150 529 93 474L34 521Q103 579 167 658.50Q231 738 266 807L340 786Q323 754 301 719L897 719L897 656L258 656Q225 613 201 585L809 585L809 286L329 286L374 262Q356 240 338 220L827 220L827 161Q732 84 610 31Q745-6 939-27M733 529L261 529L261 462L733 462L733 529M261 413L261 344L733 344L733 413L261 413M306 163Q393 103 513 60Q641 106 720 163L306 163Z"  horiz-adv-x="984" vert-adv-y="1000"  />

    
    <glyph glyph-name="uni5916" unicode="&#x5916;" d="M333 789Q316 725 289 645L519 645L519 571Q484 364 391 213Q298 62 117-99L57-39Q233 110 321 246.50Q409 383 446 571L261 571Q230 494 198 433Q280 384 342 328L299 251Q254 305 162 365Q124 301 97 264L39 319Q109 419 166 547Q223 675 254 802L333 789M605 800L678 798L678-97L605-97L605 800M720 494Q858 406 942 331L898 255Q814 350 678 433L720 494Z"  horiz-adv-x="984" vert-adv-y="1000"  />

    
    <glyph glyph-name="uni591A" unicode="&#x591A;" d="M524 351L890 351L890 284Q767 143 589 53.50Q411-36 88-109L51-43Q358 24 523.50 100Q689 176 789 284L447 284Q413 257 384 237Q459 197 519 153L471 90Q420 139 322 197Q240 146 136 96L94 155Q228 214 338.50 289Q449 364 521 442Q340 364 102 313L67 376Q514 466 748 649L387 649Q383 647 365.50 634Q348 621 338 615Q404 584 460 547L414 488Q366 531 274 575Q209 537 141 504L98 558Q213 612 311.50 680Q410 748 472 816L537 784Q510 751 468 714L856 714L856 649Q728 535 543 451L592 424Q557 383 524 351Z"  horiz-adv-x="984" vert-adv-y="1000"  />

    
    <glyph glyph-name="uni591F" unicode="&#x591F;" d="M707 341L918 341L918 273Q870 150 766.50 60Q663-30 484-109L439-47Q609 16 706.50 94Q804 172 849 276L660 276Q641 252 615 224Q676 176 709 140L665 89Q640 124 575 182Q542 149 494 111L450 161L448 58Q447-15 417.50-41.50Q388-68 306-77L253-83L230-13L300-7Q353-3 366.50 14Q380 31 381 87Q387 216 387 610L178 610Q142 550 67 452L19 498Q78 565 127.50 648.50Q177 732 201 805L268 793Q246 733 219 681L456 681Q456 678 456 660.50Q456 643 455.50 615.50Q455 588 455 560Q587 669 653 806L721 796Q696 748 670 708L901 708L901 643Q835 524 706 438L758 424Q737 386 707 341M497 515L455 558L452 382Q726 480 830 649L627 649Q607 623 596 611Q653 568 686 537L639 489Q612 524 555 567Q517 531 497 515M310 484L310 99L101 99L101 484L310 484M450 162Q601 271 688 426Q602 372 487 327L452 377Q450 223 450 162M251 159L251 426L162 426L162 159L251 159Z"  horiz-adv-x="984" vert-adv-y="1000"  />

    
    <glyph glyph-name="uni5927" unicode="&#x5927;" d="M525 480Q583 165 937-26L885-98Q741-11 639.50 102Q538 215 496 329Q414 102 111-98L55-26Q224 71 333 200.50Q442 330 450 488L90 488L90 564L450 564L450 799L531 795L531 564L904 564L904 488L525 488L525 480Z"  horiz-adv-x="984" vert-adv-y="1000"  />

    
    <glyph glyph-name="uni5931" unicode="&#x5931;" d="M547 297Q591 184 682 108Q773 32 933-26L886-98Q739-39 645 37Q551 113 500 219Q404 28 108-102L59-34Q385 98 445 297L77 297L77 372L458 372L458 378Q458 386 459 411Q460 436 460.50 479Q461 522 462 555L246 555Q210 473 169 407L103 443Q192 580 243 770L316 753Q298 691 275 629L462 629L464 802L544 799L544 794Q544 789 544 780.50Q544 772 544 760Q544 748 543.50 733Q543 718 543 701.50Q543 685 543 666Q543 647 543 629L859 629L859 555L542 555L540 384L540 372L904 372L904 297L547 297Z"  horiz-adv-x="984" vert-adv-y="1000"  />

    
    <glyph glyph-name="uni597D" unicode="&#x597D;" d="M330 166Q412 97 463 44L411-28Q369 23 289 96Q227 9 96-98L39-43Q175 61 233 146Q146 219 100 252Q138 406 160 550L58 550L58 625L171 625Q182 702 190 806L262 800Q252 697 243 625L422 625L422 554Q392 288 330 166M939 391L939 317L714 317L714 32Q714-35 686-60Q658-85 577-89L524-93L500-15L564-11Q611-8 625 5.50Q639 19 639 60L639 317L425 317L425 391L639 391L639 510Q721 575 801 661L466 661L466 736L897 736L897 662Q798 550 714 483L714 391L939 391M178 285Q214 261 273 214Q327 325 355 550L232 550Q213 427 178 285Z"  horiz-adv-x="984" vert-adv-y="1000"  />

    
    <glyph glyph-name="uni5982" unicode="&#x5982;" d="M463 549Q448 402 423.50 307.50Q399 213 354 140Q447 65 502 10L456-58Q401 3 310 81Q245 2 100-107L49-48Q190 50 255 126Q162 201 108 232Q151 389 177 550L65 550L65 621L187 621Q198 702 206 808L282 799Q275 712 262 621L463 621L463 549M539 684L877 684L877-75L805-75L805 7L611 7L611-80L539-80L539 684M611 77L805 77L805 614L611 614L611 77M190 259Q228 237 297 185Q337 249 357 332.50Q377 416 390 550L252 550Q226 379 190 259Z"  horiz-adv-x="984" vert-adv-y="1000"  />

    
    <glyph glyph-name="uni59BB" unicode="&#x59BB;" d="M809 422L809 306L375 306L438 288Q424 260 403 226L918 226L918 169L738 169Q686 88 619 43Q795-4 896-41L874-109Q759-60 539-1Q411-58 98-107L70-40Q314-9 435 27Q308 61 211 81Q244 119 280 169L63 169L63 226L318 226Q343 265 364 306L136 306L136 360L450 360L450 422L52 422L52 479L450 479L450 539L142 539L142 595L450 595L450 669L96 669L96 726L450 726L450 808L522 806L522 726L891 726L891 669L522 669L522 595L809 595L809 479L935 479L935 422L809 422M522 539L522 479L732 479L732 539L522 539M522 360L732 360L732 422L522 422L522 360M651 169L367 169L328 113Q412 95 533 65Q607 103 651 169Z"  horiz-adv-x="984" vert-adv-y="1000"  />

    
    <glyph glyph-name="uni5A01" unicode="&#x5A01;" d="M880 154L938 124Q925 51 907-9Q885-81 823-81Q789-81 760.50-57.50Q732-34 699 27Q691 41 677 73Q620-4 540-81L490-32Q585 55 649 150Q603 304 576 589L196 589L196 395Q196 216 175.50 115.50Q155 15 97-101L29-69Q86 37 105.50 131.50Q125 226 125 397L125 660L570 660L561 808L632 808Q634 739 639 660L779 660Q745 715 698 764L748 800Q809 739 841 685L814 660L908 660L908 589L644 589Q662 370 696 232Q756 354 788 525L858 511Q805 278 722 141Q737 97 759 55Q775 25 793 11Q811-3 825-3Q840-3 847 7.50Q854 18 860 45Q873 106 880 154M490-19Q465 8 419 42Q352-18 221-78L185-21Q311 35 369 80Q307 124 247 157Q269 208 289 273L213 273L213 335L307 335Q324 397 332 436L232 436L232 499L557 499L557 436L400 436Q392 398 375 335L543 335L543 269Q520 159 467 93Q506 67 529 45L490-19M356 273Q341 223 324 183Q361 165 418 127Q458 176 481 273L356 273Z"  horiz-adv-x="984" vert-adv-y="1000"  />

    
    <glyph glyph-name="uni5B50" unicode="&#x5B50;" d="M924 388L924 314L537 314L537 46Q537-23 511.50-45Q486-67 405-74L322-81L296-5L380 1Q431 5 443.50 16.50Q456 28 456 73L456 314L62 314L62 388L456 388L456 477L716 666L149 666L149 739L843 739L843 665L537 442L537 388L924 388Z"  horiz-adv-x="984" vert-adv-y="1000"  />

    
    <glyph glyph-name="uni5B54" unicode="&#x5B54;" d="M857 179L927 150Q924 80 911 6Q904-32 875.50-49.50Q847-67 780-70Q740-72 701-70Q628-67 599.50-39.50Q571-12 571 65L571 792L649 789L649 79Q649 36 662 21.50Q675 7 716 5Q742 4 769 5Q810 7 826 17.50Q842 28 847 58Q855 106 857 179M528 395L530 357Q456 333 336 304L336 39Q336-29 306.50-51Q277-73 185-82L137-87L113-12L177-7Q234-2 247 8Q260 18 260 63L260 286Q134 255 54 243L36 319Q123 331 260 362L260 496Q329 567 400 667L86 667L86 742L493 742L493 669Q382 524 336 477L336 380Q442 406 526 432L528 395Z"  horiz-adv-x="984" vert-adv-y="1000"  />

    
    <glyph glyph-name="uni5B57" unicode="&#x5B57;" d="M179 619L179 476L103 476L103 691L462 691Q447 748 427 797L505 811Q519 772 545 691L881 691L881 475L804 475L804 619L179 619M926 262L926 190L539 190L539 42Q539-31 516.50-52Q494-73 417-80L340-87L315-14L391-8Q437-4 448.50 7.50Q460 19 460 63L460 190L57 190L57 262L460 262L460 318L634 432L218 432L218 504L761 504L761 433L539 289L539 262L926 262Z"  horiz-adv-x="984" vert-adv-y="1000"  />

    
    <glyph glyph-name="uni5B66" unicode="&#x5B66;" d="M168 555L168 433L93 433L93 626L251 626Q212 713 177 757L246 786Q260 768 287.50 719.50Q315 671 326 646L284 626L477 626Q457 696 410 783L480 806Q491 787 517.50 727Q544 667 551 643L504 626L639 626Q701 718 735 800L808 771Q769 697 725 626L891 626L891 433L816 433L816 555L168 555M924 229L924 156L547 156L547 30Q547-36 519.50-57.50Q492-79 410-84L332-89L310-17L393-11Q443-7 455.50 3Q468 13 468 53L468 156L60 156L60 229L468 229L468 277L635 382L222 382L222 454L762 454L762 385L547 247L547 229L924 229Z"  horiz-adv-x="984" vert-adv-y="1000"  />

    
    <glyph glyph-name="uni5B85" unicode="&#x5B85;" d="M187 618L187 492L114 492L114 691L469 691Q451 751 435 794L509 808Q522 777 550 691L879 691L879 487L806 487L806 618L187 618M792 69Q800 113 800 149L875 120Q872 73 864 28Q854-27 828.50-45Q803-63 725-69Q622-77 518-69Q440-63 411-37.50Q382-12 382 58L382 198L59 177L54 249L382 271L382 417Q191 397 143 393L135 462Q505 493 772 542L785 472Q683 453 459 426L459 276L909 306L914 233L459 203L459 70Q459 32 472 20Q485 8 529 4Q614-4 700 4Q755 9 770 19.50Q785 30 792 69Z"  horiz-adv-x="984" vert-adv-y="1000"  />

    
    <glyph glyph-name="uni5B8C" unicode="&#x5B8C;" d="M172 624L172 489L99 489L99 693L472 693Q454 753 438 796L512 810Q525 779 553 693L882 693L882 490L809 490L809 624L172 624M776 433L205 433L205 500L776 500L776 433M847 126L916 102Q911 31 899-13Q891-44 861-59Q831-74 765-76L677-76Q613-76 585-48.50Q557-21 557 44L557 236L396 236Q396 231 395.50 223.50Q395 216 395 214Q387 88 324 16Q261-56 107-109L63-44Q205 2 257.50 58.50Q310 115 318 220Q318 222 318.50 227.50Q319 233 319 236L81 236L81 305L902 305L902 236L633 236L633 60Q633 22 647.50 8Q662-6 698-8Q728-10 758-8Q795-6 812.50 3Q830 12 835 34Q844 71 847 126Z"  horiz-adv-x="984" vert-adv-y="1000"  />

    
    <glyph glyph-name="uni5B9A" unicode="&#x5B9A;" d="M180 634L180 526L106 526L106 702L472 702Q454 765 441 798L512 815Q532 760 548 702L883 702L883 527L810 527L810 634L180 634M559 9Q729 5 939 14L918-60Q746-68 553-65Q343-60 242 85Q198-11 108-105L42-56Q136 36 175 120Q214 204 225 340L304 335Q293 231 271 161Q341 45 472 18L472 424L132 424L132 491L858 491L858 424L547 424L547 262L841 262L841 193L547 193L547 9L559 9Z"  horiz-adv-x="984" vert-adv-y="1000"  />

    
    <glyph glyph-name="uni5B9D" unicode="&#x5B9D;" d="M175 628L175 525L98 525L98 698L457 698Q440 760 425 794L498 815Q520 756 536 698L887 698L887 525L807 525L807 628L175 628M526 18L910 18L910-53L73-53L73 18L448 18L448 212L174 212L174 284L448 284L448 424L154 424L154 495L832 495L832 424L526 424L526 284L810 284L810 212L526 212L526 18M732 23Q686 111 642 165L706 201Q754 135 788 72L732 23Z"  horiz-adv-x="984" vert-adv-y="1000"  />

    
    <glyph glyph-name="uni5B9E" unicode="&#x5B9E;" d="M177 621L177 493L104 493L104 689L468 689Q447 761 432 799L506 813Q520 779 549 689L882 689L882 491L807 491L807 621L177 621M919-24L887-97Q733-2 521 71Q464 12 364-28Q264-68 101-101L68-27Q256 8 353.50 51.50Q451 95 494 162L65 162L65 230L524 230Q540 283 547 393Q549 425 553 579L630 576Q630 494 624 383Q621 291 606 230L918 230L918 162L583 162Q578 150 566 128Q645 103 751.50 57Q858 11 919-24M499 459L469 386Q401 443 247 519L277 579Q321 562 391 524Q461 486 499 459M167 381L198 439Q249 416 321.50 374.50Q394 333 431 305L397 239Q356 272 284 315.50Q212 359 167 381Z"  horiz-adv-x="984" vert-adv-y="1000"  />

    
    <glyph glyph-name="uni5BA2" unicode="&#x5BA2;" d="M179 644L179 530L104 530L104 708L464 708Q436 783 423 809L497 827Q527 763 544 708L882 708L882 521L808 521L808 644L179 644M569 352Q743 289 948 276L926 206Q681 230 484 313Q298 235 47 195L21 264Q211 283 401 353Q323 394 264 441Q211 395 138 353L91 407Q167 447 235.50 505Q304 563 346 621L407 587Q406 586 395 573.50Q384 561 378 555L778 555L778 495Q691 413 569 352M313 486Q385 431 485 386Q612 442 679 495L322 495L313 486M201-91L201 205L786 205L786-91L712-91L712-50L273-50L273-91L201-91M712 140L273 140L273 11L712 11L712 140Z"  horiz-adv-x="984" vert-adv-y="1000"  />

    
    <glyph glyph-name="uni5BA4" unicode="&#x5BA4;" d="M166 628L166 549L94 549L94 693L463 693Q445 753 429 796L503 810Q516 779 544 693L878 693L878 549L806 549L806 628L166 628M133 323Q170 330 198 349Q271 399 344 466L153 466L153 529L821 529L821 466L639 466Q683 435 750 376Q817 317 852 277L805 220Q788 243 747 284Q351 279 245 273Q220 272 147 266L133 323M442 466Q367 394 284 335Q316 335 471.50 339Q627 343 683 344Q635 388 591 419L637 466L442 466M526 0L922 0L922-64L50-64L50 0L451 0L451 109L148 109L148 175L451 175L451 253L526 249L526 175L825 175L825 109L526 109L526 0Z"  horiz-adv-x="984" vert-adv-y="1000"  />

    
    <glyph glyph-name="uni5BB6" unicode="&#x5BB6;" d="M169 637L169 509L99 509L99 701L461 701Q443 761 427 804L501 818Q514 787 542 701L887 701L887 508L817 508L817 637L169 637M680 287Q722 196 782.50 137.50Q843 79 946 23L898-38Q794 31 728.50 98Q663 165 621 259Q580 241 570 237Q585 170 585 80Q585-12 552.50-45.50Q520-79 420-87L351-93L327-24L410-19Q470-15 489.50 6.50Q509 28 509 90Q509 130 506 164Q353 37 74-63L42-2Q332 94 496 228Q489 258 475 289Q344 196 90 105L61 165Q288 234 448 341Q433 365 415 388Q267 309 92 258L64 319Q288 380 446 476L201 476L201 538L780 538L780 476L557 476Q522 450 473 421Q525 360 550 298Q703 363 815 445L851 385Q776 335 680 287Z"  horiz-adv-x="984" vert-adv-y="1000"  />

    
    <glyph glyph-name="uni5BB9" unicode="&#x5BB9;" d="M176 633L176 520L105 520L105 700L455 700Q438 759 423 796L497 810Q515 766 535 700L876 700L876 518L804 518L804 633L176 633M559 537L591 592Q743 524 885 439L852 372Q736 458 559 537M417 535Q322 463 135 376L104 440Q158 459 245 506.50Q332 554 382 591L417 535M948 208L915 142Q846 167 777 201L777-98L703-98L703-55L279-55L279-98L205-98L205 204Q158 181 70 147L36 210Q185 264 285.50 322.50Q386 381 457 457L527 457Q673 304 948 208M235 218L743 218Q593 295 492 398Q388 294 235 218M279 12L703 12L703 149L279 149L279 12Z"  horiz-adv-x="984" vert-adv-y="1000"  />

    
    <glyph glyph-name="uni5BBF" unicode="&#x5BBF;" d="M180 630L180 507L106 507L106 696L471 696Q456 750 438 796L516 810Q527 783 555 696L878 696L878 565L802 565L802 630L180 630M256 589L330 574Q296 487 252 413L252-103L180-103L180 302Q126 228 71 170L24 235Q88 296 154.50 396.50Q221 497 256 589M904 470L650 470Q633 404 623 369L843 369L843-95L770-95L770-45L453-45L453-98L380-98L380 369L546 369Q562 425 573 470L333 470L333 535L904 535L904 470M770 193L770 306L453 306L453 193L770 193M453 17L770 17L770 131L453 131L453 17Z"  horiz-adv-x="984" vert-adv-y="1000"  />

    
    <glyph glyph-name="uni5BC6" unicode="&#x5BC6;" d="M180 641L180 531L108 531L108 709L461 709Q444 768 429 805L503 819Q521 775 541 709L880 709L880 532L807 532L807 641L435 641Q512 587 571 524L529 465Q508 495 465 535Q422 575 391 596L426 641L180 641M407 213Q361 215 337.50 226.50Q314 238 304 265Q209 229 77 191L44 255Q184 290 295 333L295 558L364 556L364 361Q562 447 707 591L751 541Q599 391 379 295Q392 282 433 280Q511 276 589 280Q629 282 646 290.50Q663 299 668 317Q677 347 681 389L748 365Q745 318 730 267Q714 217 613 213Q510 209 407 213M259 511Q207 419 125 328L75 377Q160 462 205 547L259 511M776 500Q807 474 854 423Q901 372 924 340L877 287Q856 323 810.50 375.50Q765 428 732 457L776 500M751 12L751 163L823 161L823-96L751-96L751-57L158-57L158 157L231 155L231 12L457 12L457 186L528 184L528 12L751 12Z"  horiz-adv-x="984" vert-adv-y="1000"  />

    
    <glyph glyph-name="uni5BCC" unicode="&#x5BCC;" d="M549 707L886 707L886 534L816 534L816 648L159 648L159 534L91 534L91 707L465 707Q449 755 431 793L507 815Q533 759 549 707M768 588L768 533L210 533L210 588L768 588M755 312L224 312L224 478L755 478L755 312M294 425L294 366L685 366L685 425L294 425M152-108L152 252L825 252L825-108L752-108L752-64L227-64L227-108L152-108M453 194L227 194L227 124L453 124L453 194M752 124L752 194L524 194L524 124L752 124M227-6L453-6L453 65L227 65L227-6M524-6L752-6L752 65L524 65L524-6Z"  horiz-adv-x="984" vert-adv-y="1000"  />

    
    <glyph glyph-name="uni5BDF" unicode="&#x5BDF;" d="M177 659L177 557L105 557L105 719L461 719Q444 772 435 795L503 807Q517 775 534 719L881 719L881 578L810 578L810 659L177 659M720 362Q806 286 956 226L920 169Q749 247 660 333L660 280L350 280L350 321Q249 222 71 132L34 185Q185 253 277.50 333Q370 413 426 509L290 509L272 489Q316 459 344 434L306 388Q285 414 235 451Q216 432 189 410Q226 378 260 345L217 302Q194 334 147 375Q110 348 100 341L60 391Q172 459 254 561L256 565L257 565Q291 609 306 633L364 610Q350 588 334 565L498 565L498 512Q440 414 369 340L652 340Q549 441 494 615L555 628Q564 601 578 565L833 565L833 508Q768 409 720 362M760 508L604 508Q639 445 676 404Q716 443 760 508M804 133L535 133L535 17Q535-50 515-71Q495-92 413-96L360-99L336-37L398-33Q444-30 454.50-18.50Q465-7 465 31L465 133L207 133L207 192L804 192L804 133M320 114L356 61Q254-13 113-75L75-15Q208 35 320 114M619 53L647 110Q819 39 905-11L878-74Q784-12 619 53Z"  horiz-adv-x="984" vert-adv-y="1000"  />

    
    <glyph glyph-name="uni5BF9" unicode="&#x5BF9;" d="M942 605L942 531L815 531L815 46Q815-27 783.50-56Q752-85 661-91L599-95L574-16L650-12Q706-9 721.50 6Q737 21 737 69L737 531L455 531L455 605L737 605L737 800L815 797L815 605L942 605M435 620Q405 439 335 288Q432 149 483 60L420 4Q379 83 296 211Q223 79 98-67L38-19Q174 133 251 280Q147 433 82 510L139 552Q193 488 287 357Q339 478 362 621L74 621L74 694L435 694L435 620M669 227L608 179Q587 228 541 303.50Q495 379 462 422L518 459Q548 423 595 350.50Q642 278 669 227Z"  horiz-adv-x="984" vert-adv-y="1000"  />

    
    <glyph glyph-name="uni5BFC" unicode="&#x5BFC;" d="M289 323Q211 325 183 349Q155 373 155 444L155 757L790 757L790 509L230 509L230 460Q230 418 244.50 406Q259 394 311 392Q506 384 701 392Q749 394 768.50 400Q788 406 792 419Q801 445 805 482L885 444Q879 409 866 371Q851 327 734 323Q511 315 289 323M713 689L230 689L230 577L713 577L713 689M932 219L932 150L744 150L744 35Q744-39 715-63.50Q686-88 594-94L536-98L509-25L582-21Q637-18 653-3Q669 12 669 56L669 150L259 150Q365 86 435 28L402-43Q330 27 204 104L240 150L50 150L50 219L669 219L669 290L744 287L744 219L932 219Z"  horiz-adv-x="984" vert-adv-y="1000"  />

    
    </font>
</defs>
</svg>
